<svg id="Group_169" data-name="Group 169" xmlns="http://www.w3.org/2000/svg" xmlns:xlink="http://www.w3.org/1999/xlink" width="18.337" height="19.338" viewBox="0 0 18.337 19.338">
  <defs>
    <clipPath id="clip-path">
      <rect id="Rectangle_130" data-name="Rectangle 130" width="18.337" height="19.338" fill="red"/>
    </clipPath>
  </defs>
  <g id="Group_168" data-name="Group 168" clip-path="url(#clip-path)">
    <path id="Path_1314" data-name="Path 1314" d="M9.189,19.335c-1.163,0-2.327.006-3.49,0a2.863,2.863,0,0,1-2.914-2.356,18.834,18.834,0,0,1-.165-2.034q-.283-4.2-.56-8.4c-.043-.644-.081-1.289-.108-1.934-.011-.257-.088-.381-.374-.355a6.894,6.894,0,0,1-.881,0A.676.676,0,0,1,0,3.612a.687.687,0,0,1,.58-.726,1.835,1.835,0,0,1,.384-.031c1.457-.005,2.914-.013,4.371,0,.247,0,.329-.063.313-.312a4.175,4.175,0,0,1,.015-.879A1.792,1.792,0,0,1,7.4.061a22.7,22.7,0,0,1,3.729.031,1.81,1.81,0,0,1,1.56,1.769,4.136,4.136,0,0,1,0,.6c-.034.3.048.4.374.394,1.433-.018,2.867,0,4.3,0a1.96,1.96,0,0,1,.351.019.7.7,0,0,1,.621.732.682.682,0,0,1-.726.656,8.651,8.651,0,0,1-.881,0c-.248-.018-.323.08-.336.314-.071,1.23-.155,2.46-.234,3.69q-.169,2.653-.337,5.307c-.059.961-.122,1.922-.162,2.884a2.9,2.9,0,0,1-2.148,2.768,3.314,3.314,0,0,1-.9.114H9.189M9.2,4.324V4.291c-1.822,0-3.644.008-5.466-.008-.312,0-.39.1-.351.379.035.256.054.514.068.772.084,1.454.164,2.908.248,4.362.127,2.193.266,4.385.383,6.578a1.487,1.487,0,0,0,1.529,1.544q3.544.026,7.088,0A1.481,1.481,0,0,0,14.247,16.5q.178-2.76.349-5.52c.129-2.11.246-4.221.386-6.33.018-.278-.052-.334-.315-.333-1.822.01-3.644.006-5.466.006M9.133,2.843h1.375c.794,0,.794,0,.778-.786-.008-.41-.143-.551-.548-.552-.881,0-1.762.012-2.643,0-1.109-.021-1.042.053-1.048,1.085,0,.237.094.265.29.262.6-.01,1.2,0,1.8,0" transform="translate(0 0)" fill="red"/>
    <path id="Path_1315" data-name="Path 1315" d="M81.406,98.612q0,1.815,0,3.63c0,.526-.255.829-.693.835-.454.005-.714-.3-.715-.848Q80,98.617,80,95c0-.532.247-.825.692-.83s.715.294.716.843q0,1.8,0,3.595" transform="translate(-74.354 -87.531)" fill="red"/>
    <path id="Path_1316" data-name="Path 1316" d="M120,98.627q0-1.815,0-3.63c0-.53.251-.821.7-.822s.707.293.707.816q0,3.63,0,7.26c0,.522-.261.825-.7.827s-.706-.3-.706-.821q0-1.815,0-3.63" transform="translate(-111.532 -87.532)" fill="red"/>
    <path id="Path_1317" data-name="Path 1317" d="M161.4,98.663c0,1.21,0,2.42,0,3.63a.708.708,0,1,1-1.406-.006q0-2.485,0-4.969c0-.775,0-1.551,0-2.326,0-.525.257-.817.706-.816s.7.295.7.822q0,1.833,0,3.665" transform="translate(-148.708 -87.532)" fill="red"/>
  </g>
</svg>
