<svg xmlns="http://www.w3.org/2000/svg" width="23.4" height="16.374" viewBox="0 0 23.4 16.374">
  <g id="Group_1040" data-name="Group 1040" transform="translate(-152.3 -226.813)">
    <path id="Path_1404" data-name="Path 1404" d="M35.515,0h5.795c.668,0,.934.263.939.924,0,.512,0,.512.507.512.8,0,1.6.008,2.4,0a.885.885,0,0,1,.881.543c.4.822.844,1.627,1.228,2.459a13.2,13.2,0,0,0,2.035,3.216,1.34,1.34,0,0,1,.331.949c-.013,1.407,0,2.814-.006,4.221,0,.66-.248.909-.9.911-.537,0-1.073.008-1.61,0a.345.345,0,0,0-.394.256,2.868,2.868,0,0,1-5.4-.016.328.328,0,0,0-.366-.241q-1.86.013-3.72,0c-.22,0-.3.081-.378.274a2.874,2.874,0,0,1-5.405-.045.3.3,0,0,0-.335-.227c-.513.01-1.025.007-1.538,0a.7.7,0,0,1-.787-.725c0-.444.3-.707.8-.711s1-.007,1.5,0a.3.3,0,0,0,.34-.219,2.873,2.873,0,0,1,5.451-.023.314.314,0,0,0,.359.243c1.228-.008,2.456-.009,3.684,0a.347.347,0,0,0,.385-.268,2.869,2.869,0,0,1,5.424,0,.333.333,0,0,0,.387.262,6.216,6.216,0,0,1,.786,0c.228.015.28-.08.278-.29-.008-1.073-.006-2.146,0-3.219a.54.54,0,0,0-.14-.39,1.256,1.256,0,0,1-.194-.256,1.745,1.745,0,0,0-1.89-.944c-1.4.082-2.813.023-4.22.022-.708,0-.937-.231-.938-.948,0-1.443,0-2.885,0-4.328,0-.572.059-.5-.488-.5q-5.348,0-10.7,0c-.492,0-.781-.217-.824-.606A.707.707,0,0,1,29.577,0c1.6,0,3.2,0,4.793,0h1.145m8.742,5.776c.584,0,1.169-.008,1.753,0,.238.005.3-.041.182-.273Q45.57,4.3,44.972,3.085a.34.34,0,0,0-.362-.21c-.692.008-1.383.01-2.075,0-.208,0-.3.045-.292.275q.02,1.18,0,2.361c0,.239.1.273.3.269.572-.01,1.145,0,1.717,0m-1.676,7.2A1.453,1.453,0,0,0,44,14.435a1.484,1.484,0,0,0,1.468-1.451,1.449,1.449,0,0,0-1.445-1.424,1.422,1.422,0,0,0-1.438,1.418m-9.85,0a1.433,1.433,0,0,0,1.4,1.458A1.47,1.47,0,0,0,35.6,12.986a1.433,1.433,0,0,0-1.435-1.424,1.4,1.4,0,0,0-1.43,1.416" transform="translate(125.824 227.063)" fill="#ccc" stroke="#ccc" stroke-width="0.5"/>
    <path id="Path_1405" data-name="Path 1405" d="M20.265,41.373c.989,0,1.977-.007,2.966,0,.544.005.875.349.812.809a.743.743,0,0,1-.817.638c-.667.009-1.334,0-2,0-1.3,0-2.6,0-3.895,0-.536,0-.878-.3-.877-.734a.72.72,0,0,1,.81-.714c1-.01,2,0,3,0" transform="translate(137.274 188.652)" fill="#ccc" stroke="#ccc" stroke-width="0.5"/>
    <path id="Path_1406" data-name="Path 1406" d="M3.827,82.419c-.989,0-1.977,0-2.966,0-.543,0-.872-.288-.861-.734.01-.43.337-.707.856-.708q2.948,0,5.9,0c.526,0,.831.274.832.721s-.294.717-.827.72c-.977,0-1.953,0-2.93,0" transform="translate(152.55 151.882)" fill="#ccc" stroke="#ccc" stroke-width="0.5"/>
    <path id="Path_1407" data-name="Path 1407" d="M18.869,122.153c-.524,0-1.048.006-1.572,0a.735.735,0,0,1-.812-.716.726.726,0,0,1,.8-.723q1.572-.01,3.145,0a.713.713,0,0,1,.808.71c0,.44-.314.725-.831.73s-1.024,0-1.537,0" transform="translate(137.245 114.992)" fill="#ccc" stroke="#ccc" stroke-width="0.5"/>
  </g>
</svg>
