<svg id="Group_298" data-name="Group 298" xmlns="http://www.w3.org/2000/svg" xmlns:xlink="http://www.w3.org/1999/xlink" width="20.037" height="20.024" viewBox="0 0 20.037 20.024">
  <defs>
    <clipPath id="clip-path">
      <rect id="Rectangle_196" data-name="Rectangle 196" width="20.037" height="20.024" fill="#00d5ff"/>
    </clipPath>
  </defs>
  <g id="Group_297" data-name="Group 297" clip-path="url(#clip-path)">
    <path id="Path_1352" data-name="Path 1352" d="M10.025,0A10.012,10.012,0,1,1,0,10.027,10.016,10.016,0,0,1,10.025,0m.091,8.168c-.76,0-1.521.013-2.28-.006-.287-.007-.408.074-.418.37-.035.986-.04,1.972,0,2.958.011.252.092.368.375.366q2.3-.019,4.609,0c.271,0,.367-.087.384-.352a25.594,25.594,0,0,0,.007-2.957c-.016-.327-.154-.393-.448-.386-.744.018-1.488.006-2.232.006M10.1,13.63c-.663,0-1.327.018-1.989-.007-.35-.013-.417.112-.331.418.142.511.242,1.036.412,1.538a5.386,5.386,0,0,0,1.283,2.3.791.791,0,0,0,1.268.006,2.826,2.826,0,0,0,.409-.476A9.494,9.494,0,0,0,12.448,14c.058-.266-.019-.381-.314-.373-.679.017-1.358.005-2.038,0m-.013-7.274h1.261c1.182,0,1.2,0,.911-1.14a6.685,6.685,0,0,0-1.415-2.982c-.515-.562-.947-.548-1.476.008a3.233,3.233,0,0,0-.39.493A9.714,9.714,0,0,0,7.768,6.025c-.056.27.024.339.279.335.679-.01,1.358,0,2.037,0M3.795,11.85c.5,0,1-.008,1.505,0,.239.006.364-.046.329-.323a12.049,12.049,0,0,1,0-3.049c.035-.278-.088-.323-.327-.321-.987.009-1.975.012-2.962,0a.328.328,0,0,0-.383.324,9.734,9.734,0,0,0,0,3.041c.04.256.172.342.43.331.469-.019.938-.005,1.408-.006M16.328,8.168c-.453,0-.907.016-1.36-.006-.291-.014-.419.065-.379.377a11.85,11.85,0,0,1,0,2.954c-.033.274.069.368.348.363.906-.014,1.813-.016,2.72,0,.295.005.394-.117.434-.384a10.006,10.006,0,0,0,0-2.948c-.041-.279-.167-.378-.45-.363-.436.023-.874.006-1.311.006M7.063,17.63a14.675,14.675,0,0,1-1.184-3.751c-.038-.2-.173-.236-.354-.235-.823.005-1.647.011-2.47,0-.356-.006-.32.122-.183.363a8.117,8.117,0,0,0,1.105,1.524,7.949,7.949,0,0,0,3.086,2.1m-.1-15.171A7.911,7.911,0,0,0,2.7,6.354c1.014,0,1.948-.005,2.882,0A.292.292,0,0,0,5.9,6.072,16.5,16.5,0,0,1,6.965,2.459M13.184,17.57a8.388,8.388,0,0,0,4-3.6c.112-.2.191-.349-.163-.344-.777.013-1.555.011-2.332,0-.217,0-.343.076-.376.282a13.9,13.9,0,0,1-1.129,3.663m0-15.117A13.476,13.476,0,0,1,14.3,6.033a.335.335,0,0,0,.39.326c.468-.014.938.013,1.406-.008.393-.018.977.186,1.125-.1.139-.27-.31-.686-.541-1.01a8.137,8.137,0,0,0-3.492-2.787" transform="translate(-0.001 0)" fill="#00d5ff"/>
  </g>
</svg>
