<svg xmlns="http://www.w3.org/2000/svg" width="24.008" height="24.009" viewBox="0 0 24.008 24.009">
  <g id="Group_1045" data-name="Group 1045" transform="translate(-362.996 -238.996)">
    <path id="Path_1399" data-name="Path 1399" d="M11.518,0A11.5,11.5,0,1,1,0,11.463,11.507,11.507,0,0,1,11.518,0m-.024,21.285a9.781,9.781,0,1,0-9.772-9.8,9.851,9.851,0,0,0,6.021,9.061,9.453,9.453,0,0,0,3.751.739" transform="translate(363.496 239.496)" fill="#fff" stroke="#fff" stroke-width="1"/>
    <path id="Path_1400" data-name="Path 1400" d="M147.966,59.08c0-1.09-.007-2.181,0-3.271a.86.86,0,0,1,1.231-.839.927.927,0,0,1,.5.923c0,1.761.008,3.523-.01,5.284,0,.335.093.413.415.407,1.162-.019,2.324-.01,3.487-.006a.87.87,0,0,1,.853.488.812.812,0,0,1-.056.851.839.839,0,0,1-.732.382c-1.594,0-3.187.006-4.781,0a.871.871,0,0,1-.9-.948c-.006-1.09,0-2.181,0-3.271" transform="translate(226.17 188.563)" fill="#fff" stroke="#fff" stroke-width="1"/>
  </g>
</svg>
