<svg xmlns="http://www.w3.org/2000/svg" xmlns:xlink="http://www.w3.org/1999/xlink" width="53" height="51" viewBox="0 0 53 51">
  <defs>
    <clipPath id="clip-path">
      <rect id="Rectangle_206" data-name="Rectangle 206" width="24.384" height="24.474" fill="#00d5ff"/>
    </clipPath>
  </defs>
  <g id="Group_1046" data-name="Group 1046" transform="translate(-139 -553)">
    <g id="Rectangle_202" data-name="Rectangle 202" transform="translate(139 553)" fill="#f5f5f5" stroke="#f0f0f0" stroke-width="1">
      <rect width="53" height="51" rx="25.5" stroke="none"/>
      <rect x="0.5" y="0.5" width="52" height="50" rx="25" fill="none"/>
    </g>
    <g id="Group_305" data-name="Group 305" transform="translate(153.309 566.263)" clip-path="url(#clip-path)">
      <path id="Path_1357" data-name="Path 1357" d="M0,24.444c.52-1.9,1.033-3.8,1.563-5.7a1.161,1.161,0,0,0-.089-.929A12.149,12.149,0,1,1,14.064,24.2a11.854,11.854,0,0,1-7.17-1.122,1.365,1.365,0,0,0-1.041-.089c-1.79.486-3.586.95-5.38,1.421A.718.718,0,0,1,0,24.444m2.873-2.776c1.181-.3,2.252-.56,3.31-.864a1.136,1.136,0,0,1,.981.126A9.77,9.77,0,0,0,13.6,22.2a10.134,10.134,0,1,0-9.971-4.71,1.041,1.041,0,0,1,.139.921c-.31,1.049-.582,2.11-.892,3.253" transform="translate(0 0)" fill="#00d5ff"/>
      <path id="Path_1358" data-name="Path 1358" d="M61.1,67.372a10.129,10.129,0,0,1-4.692-2.016,14.424,14.424,0,0,1-3.646-4.107,4.262,4.262,0,0,1-.7-3.205,3.439,3.439,0,0,1,1.014-1.789,1.305,1.305,0,0,1,2.146.461c.235.572.436,1.162.718,1.71a1.032,1.032,0,0,1-.143,1.219c-.824,1.117-.813,1.126.037,2.231a8.4,8.4,0,0,0,3.422,2.62.615.615,0,0,0,.855-.2c.172-.234.374-.446.554-.674.567-.716.567-.72,1.416-.323.613.287,1.219.589,1.834.87a.635.635,0,0,1,.4.682c-.034,1.442-1.3,2.521-3.221,2.519" transform="translate(-45.93 -49.364)" fill="#00d5ff"/>
    </g>
  </g>
</svg>
