<svg xmlns="http://www.w3.org/2000/svg" xmlns:xlink="http://www.w3.org/1999/xlink" width="53" height="51" viewBox="0 0 53 51">
  <defs>
    <clipPath id="clip-path">
      <rect id="Rectangle_205" data-name="Rectangle 205" width="16.531" height="31.266" fill="#00d5ff"/>
    </clipPath>
  </defs>
  <g id="Group_1047" data-name="Group 1047" transform="translate(-80 -553)">
    <g id="Rectangle_201" data-name="Rectangle 201" transform="translate(80 553)" fill="#f5f5f5" stroke="#f0f0f0" stroke-width="1">
      <rect width="53" height="51" rx="25.5" stroke="none"/>
      <rect x="0.5" y="0.5" width="52" height="50" rx="25" fill="none"/>
    </g>
    <g id="Group_304" data-name="Group 304" transform="translate(97.135 562.868)">
      <g id="Group_303" data-name="Group 303" transform="translate(0 0)" clip-path="url(#clip-path)">
        <path id="Path_1356" data-name="Path 1356" d="M5.04,24.134c0-1.9-.046-3.805.018-5.7.034-.979-.324-1.223-1.267-1.255C-.07,17.04-.008,17.007,0,13.12c0-1.293.5-1.49,1.62-1.486,3.41.012,3.411-.03,3.424-3.447.017-4.4,1.522-6.926,4.679-7.82a14,14,0,0,1,5.83-.12.952.952,0,0,1,.906,1.136,8.809,8.809,0,0,0,.012,1.654c.253,1.592-.306,2.128-1.971,2.059-2.479-.1-3.427.949-3.514,3.413-.024.674.037,1.353-.02,2.023-.077.9.308,1.235,1.167,1.127a1.515,1.515,0,0,1,.368,0c1.192.144,3.124-.555,3.425.319.446,1.3-.192,2.972-.4,4.482-.164,1.183-1.122.7-1.75.72-2.8.068-2.8.041-2.8,2.813,0,3.19-.049,6.382.025,9.57.028,1.2-.183,1.709-1.563,1.7-4.4-.026-4.4.037-4.4-4.371q0-1.38,0-2.761" transform="translate(0 0)" fill="#00d5ff"/>
      </g>
    </g>
  </g>
</svg>
