<svg id="Group_1042" data-name="Group 1042" xmlns="http://www.w3.org/2000/svg" xmlns:xlink="http://www.w3.org/1999/xlink" width="18.579" height="17.47" viewBox="0 0 18.579 17.47">
  <defs>
    <clipPath id="clip-path">
      <rect id="Rectangle_635" data-name="Rectangle 635" width="18.579" height="17.47" fill="#ccc"/>
    </clipPath>
  </defs>
  <g id="Group_1041" data-name="Group 1041" clip-path="url(#clip-path)">
    <path id="Path_1408" data-name="Path 1408" d="M18.456,8.019a1.568,1.568,0,0,0-.244-.289l-.256-.256C15.823,5.341,13.618,3.134,11.447.966a2.892,2.892,0,0,0-4.316,0q-1.4,1.4-2.8,2.8L3.184,4.914l-.774.773C1.714,6.382.994,7.1.289,7.812A.866.866,0,0,0,.254,9.07.853.853,0,0,0,1.4,9.137v1.592q0,2.317,0,4.634A1.93,1.93,0,0,0,3.5,17.469H15.084a1.936,1.936,0,0,0,2.091-2.08V13.324q0-2.091,0-4.182a.865.865,0,0,0,1.278-1.122m-3.021,5.395v1.957c0,.237-.039.294-.051.306s-.071.052-.313.052h-.8c-.614,0-1.248,0-1.874.006.007-1.122.006-2.262,0-3.365v-.605a2.076,2.076,0,0,0-2.217-2.209H9.809c-.492,0-1,0-1.5,0a2.069,2.069,0,0,0-2.132,2.122c-.005,1.551,0,2.841,0,4.056-.4-.006-.8-.007-1.194-.007h-1.5c-.311,0-.337-.025-.337-.328q0-1.42,0-2.841V11.472q0-.474,0-.947c0-.977,0-1.988,0-2.982a.259.259,0,0,1,.093-.219C4.411,6.151,5.606,4.956,6.761,3.8L8.352,2.209a1.185,1.185,0,0,1,1.874,0l1.656,1.656C13.016,5,14.189,6.171,15.345,7.323a.261.261,0,0,1,.093.22c0,1.957,0,3.947,0,5.871m-7.519-.291q0-.7,0-1.4c0-.327.1-.427.434-.428.622,0,1.255,0,1.85,0,.373,0,.464.09.465.453q0,.692,0,1.384v.606q0,.28,0,.559c0,.47,0,.954,0,1.434-.452,0-.91-.007-1.371-.007s-.922,0-1.385.007c0-.871,0-1.754,0-2.609" transform="translate(0 0)" fill="#ccc"/>
  </g>
</svg>
