<svg id="Group_308" data-name="Group 308" xmlns="http://www.w3.org/2000/svg" xmlns:xlink="http://www.w3.org/1999/xlink" width="22.905" height="22.857" viewBox="0 0 22.905 22.857">
  <defs>
    <clipPath id="clip-path">
      <rect id="Rectangle_207" data-name="Rectangle 207" width="22.905" height="22.857" fill="#00d5ff"/>
    </clipPath>
  </defs>
  <g id="Group_307" data-name="Group 307" clip-path="url(#clip-path)">
    <path id="Path_1359" data-name="Path 1359" d="M11.406.012c1.889.032,3.779-.079,5.67.1a6.133,6.133,0,0,1,5.66,5.65c.269,3.488.156,6.981.084,10.47a6.336,6.336,0,0,1-2.726,5.458,7.257,7.257,0,0,1-4.079,1.135c-3.055.04-6.113.053-9.168,0a6.511,6.511,0,0,1-5.658-2.713A7.189,7.189,0,0,1,.037,16.036C0,12.96-.018,9.882.038,6.806A6.48,6.48,0,0,1,2.775,1.162,7.517,7.517,0,0,1,6.916.021c1.5-.04,2.993-.009,4.49-.009m.013,20.832c1.684-.013,3.368,0,5.052-.107a4.193,4.193,0,0,0,4.268-4.277,96.206,96.206,0,0,0,0-10.165,4.159,4.159,0,0,0-4.172-4.171,96.17,96.17,0,0,0-10.289,0A4.153,4.153,0,0,0,2.134,6.264a96.751,96.751,0,0,0,0,10.227,4.192,4.192,0,0,0,4.236,4.244c1.684.109,3.367.1,5.052.108" transform="translate(0 0)" fill="#00d5ff"/>
    <path id="Path_1360" data-name="Path 1360" d="M50.256,56.1a5.893,5.893,0,1,1,5.919-5.9,5.929,5.929,0,0,1-5.919,5.9m3.844-5.9a3.818,3.818,0,1,0-3.824,3.829A3.8,3.8,0,0,0,54.1,50.195" transform="translate(-38.848 -38.781)" fill="#00d5ff"/>
    <path id="Path_1361" data-name="Path 1361" d="M131.191,34.348a1.286,1.286,0,0,1-1.344-1.315,1.3,1.3,0,0,1,1.346-1.385,1.318,1.318,0,0,1,1.353,1.325,1.3,1.3,0,0,1-1.355,1.375" transform="translate(-113.64 -27.698)" fill="#00d5ff"/>
  </g>
</svg>
