<svg xmlns="http://www.w3.org/2000/svg" width="20.031" height="21.266" viewBox="0 0 20.031 21.266">
  <path id="Path_1345" data-name="Path 1345" d="M16.2,20.016H1.326A2.58,2.58,0,0,1-1.245,17.6a2.558,2.558,0,0,1,.11-.922l0-.008c.012-.038.025-.076.038-.113l0-.013q.086-.251.171-.5a2.13,2.13,0,0,1,.9-1.146,8.315,8.315,0,0,1,2.057-.866l.036-.011c.462-.146.926-.273,1.376-.4.543-.149,1.055-.29,1.56-.459a1.184,1.184,0,0,0,.329-.146.808.808,0,0,0,.039-.207,9.854,9.854,0,0,1-3-.82l-.013-.006a1.42,1.42,0,0,1-.487-2.2A2.494,2.494,0,0,0,2.3,8.629c.133-.683.207-1.376.285-2.11.032-.3.064-.6.1-.905q.02-.166.04-.333c.081-.684.165-1.391.31-2.1A5.241,5.241,0,0,1,6.718-.9,6.581,6.581,0,0,1,8.8-1.25a6.4,6.4,0,0,1,3.246.912,5.1,5.1,0,0,1,2.475,3.644c.189,1.057.307,2.124.421,3.155.035.312.07.635.107.95a10.215,10.215,0,0,0,.316,1.779,1.647,1.647,0,0,0,.28.595A1.424,1.424,0,0,1,15.153,12c-.181.084-.355.151-.517.214a10.136,10.136,0,0,1-2.478.6,1.224,1.224,0,0,0,.032.162.4.4,0,0,0,.031.084l.028.012c.532.194,1.082.345,1.665.505.276.076.561.154.844.237l.154.045a14.24,14.24,0,0,1,2.05.719,5.861,5.861,0,0,1,.588.324,2.076,2.076,0,0,1,.9,1.139q.086.257.174.512l0,.011c.014.037.026.074.038.113a2.572,2.572,0,0,1-2.46,3.335ZM.9,17.313a.44.44,0,0,0-.019.156.449.449,0,0,0,.448.42H16.2a.449.449,0,0,0,.448-.418.44.44,0,0,0-.017-.151l-.015-.044q-.095-.276-.188-.554l0-.009a3.837,3.837,0,0,0-.367-.2,12.45,12.45,0,0,0-1.749-.606l-.156-.046c-.265-.078-.54-.154-.807-.227-.6-.164-1.216-.334-1.83-.558a2.164,2.164,0,0,1-1.382-1.529,4.716,4.716,0,0,1-.129-1.335c0-.046,0-.092,0-.138a1.264,1.264,0,0,1,1.281-1.323,8.009,8.009,0,0,0,2.232-.4,4.858,4.858,0,0,1-.2-.543,12.074,12.074,0,0,1-.393-2.148c-.038-.322-.074-.649-.109-.964-.11-1-.225-2.028-.4-3.016A2.958,2.958,0,0,0,10.974,1.5,4.3,4.3,0,0,0,8.8.877a4.46,4.46,0,0,0-1.408.24A3.1,3.1,0,0,0,5.121,3.608c-.127.621-.2,1.253-.281,1.923q-.02.169-.04.338c-.035.289-.067.587-.1.876-.08.746-.162,1.518-.313,2.29a6.026,6.026,0,0,1-.381,1.316,8.174,8.174,0,0,0,2.236.4,1.307,1.307,0,0,1,.953.413,1.288,1.288,0,0,1,.319.967c0,.072,0,.161,0,.255s0,.227,0,.355a2.376,2.376,0,0,1-1.828,2.446c-.561.188-1.126.343-1.673.493-.45.124-.875.24-1.3.374l-.036.011a6.618,6.618,0,0,0-1.555.632l-.024.017,0,.009,0,0q-.088.262-.178.524L.9,17.293Z" transform="translate(1.25 1.25)" fill="#00d5ff"/>
</svg>
