<svg xmlns="http://www.w3.org/2000/svg" xmlns:xlink="http://www.w3.org/1999/xlink" width="24.714" height="26.465" viewBox="0 0 24.714 26.465">
  <defs>
    <clipPath id="clip-path">
      <rect id="Rectangle_197" data-name="Rectangle 197" width="24.714" height="26.465" transform="translate(-2 -2)" fill="#00d5ff" stroke="#00d5ff" stroke-width="0.5"/>
    </clipPath>
  </defs>
  <g id="Group_300" data-name="Group 300" transform="translate(2 2)">
    <g id="Group_299" data-name="Group 299" clip-path="url(#clip-path)">
      <path id="Path_1353" data-name="Path 1353" d="M20.713,8.028c-.043.965.052,2.145-.06,3.326a11.3,11.3,0,0,1-2.526,6.152,11.7,11.7,0,0,1-3.586,2.921q-1.571.854-3.126,1.735a2,2,0,0,1-2.11,0c-1.129-.64-2.277-1.247-3.4-1.9a11.269,11.269,0,0,1-5.751-8.2A10.218,10.218,0,0,1,0,10.327Q0,7.6,0,4.87A1.83,1.83,0,0,1,1.726,2.911,18.51,18.51,0,0,0,9.253.339,1.969,1.969,0,0,1,11.49.357a18.468,18.468,0,0,0,7.531,2.557,1.833,1.833,0,0,1,1.69,1.871c.006,1.009,0,2.018,0,3.243m-1.591.051c0-1.125,0-2.041,0-2.957,0-.607-.014-.62-.6-.682a16.974,16.974,0,0,1-2.107-.373,19.451,19.451,0,0,1-5.74-2.346.539.539,0,0,0-.649.01c-.382.236-.776.456-1.176.661A19.6,19.6,0,0,1,2.135,4.45c-.533.063-.543.081-.543.614,0,1.433,0,2.867,0,4.3a13.532,13.532,0,0,0,.1,2.3,9.741,9.741,0,0,0,4.828,7.112c1.163.685,2.359,1.314,3.536,1.976a.576.576,0,0,0,.631-.009c.689-.394,1.387-.773,2.081-1.16A15.611,15.611,0,0,0,15.8,17.638a9.752,9.752,0,0,0,3.26-6.348c.124-1.14.021-2.281.065-3.211" transform="translate(0 0.001)" fill="#00d5ff" stroke="#00d5ff" stroke-width="0.5"/>
      <path id="Path_1354" data-name="Path 1354" d="M91.36,98.25a.8.8,0,0,1-.261.58q-1.933,2.059-3.865,4.118a.786.786,0,0,1-1.222.065q-1.153-1.008-2.291-2.033a.8.8,0,1,1,1.031-1.208c.526.446,1.043.9,1.545,1.374.188.177.286.177.463-.016,1.043-1.131,2.1-2.249,3.153-3.369a.825.825,0,0,1,1.165-.16.749.749,0,0,1,.282.648" transform="translate(-76.765 -89.664)" fill="#00d5ff" stroke="#00d5ff" stroke-width="0.5"/>
    </g>
  </g>
</svg>
