<svg xmlns="http://www.w3.org/2000/svg" xmlns:xlink="http://www.w3.org/1999/xlink" width="24.853" height="20.063" viewBox="0 0 24.853 20.063">
  <defs>
    <clipPath id="clip-path">
      <rect id="Rectangle_195" data-name="Rectangle 195" width="24.853" height="20.063" transform="translate(-1 -1)" fill="#00d5ff" stroke="#00d5ff" stroke-width="0.5"/>
    </clipPath>
  </defs>
  <g id="Group_296" data-name="Group 296" transform="translate(1 1)">
    <g id="Group_295" data-name="Group 295" clip-path="url(#clip-path)">
      <path id="Path_1348" data-name="Path 1348" d="M7.562,12.352c.012.633.123,1.252.188,1.875.106,1.015.23,2.029.32,3.045.045.514-.221.78-.738.785-.9.008-1.808.007-2.712,0a.72.72,0,0,1-.823-.7c-.224-1.561-.437-3.124-.654-4.686-.047-.341-.1-.68-.143-1.022-.023-.2-.123-.249-.31-.245a3.815,3.815,0,0,1-1.409-.138A1.809,1.809,0,0,1,0,9.485C0,8.617,0,7.748.005,6.88A2.1,2.1,0,0,1,2.068,4.766c.963-.022,1.927-.012,2.891-.006a1.786,1.786,0,0,0,.69-.136Q11.291,2.365,16.936.111c.718-.287,1.139-.01,1.14.758q0,7.209,0,14.418c0,.758-.431,1.043-1.145.758q-4.473-1.786-8.944-3.574a.825.825,0,0,0-.425-.118M16.649,1.784c-.116.035-.2.053-.271.083q-4.948,1.981-9.9,3.958a.367.367,0,0,0-.285.406q.017,1.837,0,3.675a.39.39,0,0,0,.3.435q4.9,1.949,9.8,3.921c.316.127.365.061.364-.256q-.014-5.922-.006-11.845ZM4.773,8.1c0-.546-.009-1.092,0-1.638.005-.221-.072-.285-.286-.282-.748.01-1.5,0-2.243.005-.568,0-.817.259-.819.833,0,.76,0,1.519,0,2.279,0,.5.152.671.647.679.819.013,1.638,0,2.457.008.188,0,.246-.062.243-.246-.009-.546,0-1.092,0-1.638m1.062,8.532c.167,0,.334-.012.5,0,.227.02.249-.089.226-.278q-.248-2.085-.484-4.172a.775.775,0,0,0-.842-.775c-.142-.01-.288.016-.428-.005-.346-.052-.415.087-.364.411.216,1.382.411,2.768.613,4.153.1.664.095.664.779.664" transform="translate(0 0)" fill="#00d5ff" stroke="#00d5ff" stroke-width="0.5"/>
      <path id="Path_1349" data-name="Path 1349" d="M266.924,42.365a.594.594,0,0,1,.227-.524c.8-.648,1.6-1.3,2.417-1.933a.708.708,0,0,1,.89,1.1c-.8.656-1.6,1.3-2.417,1.933a.66.66,0,0,1-.767.048.639.639,0,0,1-.349-.625" transform="translate(-247.866 -36.912)" fill="#00d5ff" stroke="#00d5ff" stroke-width="0.5"/>
      <path id="Path_1350" data-name="Path 1350" d="M266.929,153.83a.635.635,0,0,1,.337-.632.659.659,0,0,1,.768.031c.822.643,1.639,1.292,2.443,1.957a.679.679,0,0,1,.089.961.662.662,0,0,1-.948.148c-.838-.641-1.655-1.308-2.477-1.97a.569.569,0,0,1-.212-.493" transform="translate(-247.871 -142.16)" fill="#00d5ff" stroke="#00d5ff" stroke-width="0.5"/>
      <path id="Path_1351" data-name="Path 1351" d="M268.8,111.193c-.38,0-.761.006-1.141,0a.686.686,0,0,1-.745-.724.676.676,0,0,1,.733-.7q1.159-.012,2.317,0a.711.711,0,1,1,.011,1.421c-.392.01-.784,0-1.176,0" transform="translate(-247.857 -101.928)" fill="#00d5ff" stroke="#00d5ff" stroke-width="0.5"/>
    </g>
  </g>
</svg>
