<svg xmlns="http://www.w3.org/2000/svg" xmlns:xlink="http://www.w3.org/1999/xlink" width="22.838" height="19" viewBox="0 0 22.838 19">
  <defs>
    <clipPath id="clip-path">
      <rect id="Rectangle_204" data-name="Rectangle 204" width="22.838" height="19" fill="#00d5ff"/>
    </clipPath>
  </defs>
  <g id="Group_302" data-name="Group 302" transform="translate(0 0)">
    <g id="Group_301" data-name="Group 301" transform="translate(0 0)" clip-path="url(#clip-path)">
      <path id="Path_1355" data-name="Path 1355" d="M22.837,2.25c-.35,2.32-.774,5.245-1.24,8.165-.329,2.061-.724,4.109-1.076,6.166-.441,2.569-1.563,3.063-3.705,1.617q-2.879-1.944-5.754-3.9c-1.5-1.022-1.559-1.588-.244-2.85,1.813-1.741,3.643-3.463,5.462-5.2.255-.246.5-.5.731-.772.141-.164.331-.373.122-.586a.514.514,0,0,0-.633,0c-.252.141-.486.312-.727.472-2.653,1.763-5.319,3.5-7.952,5.3a4.012,4.012,0,0,1-3.738.6c-.973-.323-1.979-.551-2.949-.884C.672,10.221.045,10.13,0,9.482c-.045-.689.577-.888,1.054-1.1q3.52-1.57,7.064-3.08c3.835-1.643,7.656-3.326,11.57-4.781.389-.145.789-.271,1.192-.379,1.488-.4,1.989-.014,1.954,2.111" transform="translate(0 0)" fill="#00d5ff"/>
    </g>
  </g>
</svg>
