<svg xmlns="http://www.w3.org/2000/svg" width="338.772" height="627.189" viewBox="0 0 338.772 627.189"><g transform="translate(-25.614 -99.804)"><path d="M0-377.926V157.882l9.407,10.382,9.407-10.382,9.42,10.382,9.407-10.382,9.42,10.382,9.407-10.382,9.42,10.382L75.3,157.882l9.42,10.382,9.407-10.382,9.42,10.382,9.42-10.382,9.407,10.382,9.42-10.382,9.42,10.382,9.42-10.382,9.407,10.382,9.42-10.382,9.42,10.382,9.42-10.382,9.407,10.382,9.433-10.382,9.42,10.382,9.394-10.356.026-.026,9.394,10.343.039-.04,9.342-10.3,9.42,10.382,9.407-10.382,9.407,10.382,9.42-10.382,9.407,10.382,9.42-10.382,9.407,10.382,9.42-10.382,9.42,10.382,9.29-10.252V-377.926Z" transform="translate(25.614 558.73)" fill="#fff"/><rect width="338" height="162" rx="15" transform="translate(26 99.804)" fill="#fff"/></g></svg>