<svg xmlns="http://www.w3.org/2000/svg" width="24.357" height="16.885" viewBox="0 0 24.357 16.885">
  <g id="Group_237" data-name="Group 237" transform="translate(-9649.874 -272.052)">
    <g id="Group_238" data-name="Group 238" transform="translate(-9)">
      <path id="Path_1332" data-name="Path 1332" d="M9671.053,281.086h-11.205s-.974-.436-.974-.974a.974.974,0,0,1,.974-.974h11.205a.974.974,0,1,1,0,1.948Z" transform="translate(0 4.693)" fill="#00d5ff"/>
      <path id="Path_1332-2" data-name="Path 1332" d="M9659.85,281.086h11.205s.974-.436.974-.974a.974.974,0,0,0-.974-.974H9659.85a.974.974,0,1,0,0,1.948Z" transform="translate(11.203 -3.75)" fill="#00d5ff"/>
      <path id="Path_1332-3" data-name="Path 1332" d="M9659.257,281.086h-3.54a.974.974,0,0,1,0-1.948h3.54a.974.974,0,0,1,.975.974C9660.231,280.65,9659.257,281.086,9659.257,281.086Z" transform="translate(23 4.693)" fill="#00d5ff"/>
      <path id="Path_1332-4" data-name="Path 1332" d="M9655.718,281.086h3.54a.974.974,0,0,0,0-1.948h-3.54a.974.974,0,0,0-.975.974C9654.743,280.65,9655.718,281.086,9655.718,281.086Z" transform="translate(4.131 -3.75)" fill="#00d5ff"/>
      <path id="Ellipse_14_-_Outline" data-name="Ellipse 14 - Outline" d="M4.221,1.948A2.273,2.273,0,1,0,6.494,4.221,2.275,2.275,0,0,0,4.221,1.948M4.221,0A4.221,4.221,0,1,1,0,4.221,4.221,4.221,0,0,1,4.221,0Z" transform="translate(9670.496 280.494)" fill="#00d5ff"/>
      <path id="Ellipse_14_-_Outline-2" data-name="Ellipse 14 - Outline" d="M4.221,1.948A2.273,2.273,0,1,1,1.948,4.221,2.275,2.275,0,0,1,4.221,1.948M4.221,0A4.221,4.221,0,1,0,8.442,4.221,4.221,4.221,0,0,0,4.221,0Z" transform="translate(9663.167 272.052)" fill="#00d5ff"/>
    </g>
  </g>
</svg>
