<svg xmlns="http://www.w3.org/2000/svg" width="23.541" height="24.998" viewBox="0 0 23.541 24.998">
  <path id="Path_1345" data-name="Path 1345" d="M20.96,20.191c-.008-.025-.016-.05-.025-.076h0q-.11-.321-.218-.643a1.206,1.206,0,0,0-.526-.673,5.638,5.638,0,0,0-.564-.312,17.056,17.056,0,0,0-2.415-.832c-1.009-.3-2.034-.537-3.024-.9a1.3,1.3,0,0,1-.847-.955,5.151,5.151,0,0,1-.106-1.4c0-.222.062-.3.3-.306a10.623,10.623,0,0,0,3.439-.7c.178-.068.355-.137.53-.218a.423.423,0,0,0,.145-.659,3.128,3.128,0,0,1-.57-1.143,13.2,13.2,0,0,1-.417-2.309c-.186-1.586-.329-3.178-.61-4.751A4.716,4.716,0,0,0,13.745.9,6.139,6.139,0,0,0,8.509.345a4.9,4.9,0,0,0-3.5,3.863c-.186.91-.283,1.836-.394,2.758C4.472,8.178,4.384,9.4,4.15,10.6a4.061,4.061,0,0,1-.764,1.929.419.419,0,0,0,.145.649l.005,0a10.5,10.5,0,0,0,3.969.922c.236.01.311.081.3.305-.013.245.007.492,0,.738a1.576,1.576,0,0,1-1.3,1.736c-1.144.383-2.322.649-3.471,1.012a8.935,8.935,0,0,0-2.166.894,1.261,1.261,0,0,0-.545.687c-.069.2-.137.408-.208.611l-.01.027c-.01.028-.019.056-.028.084a1.772,1.772,0,0,0,1.7,2.3H19.263a1.773,1.773,0,0,0,1.7-2.3" transform="translate(1.25 1.256)" fill="none" stroke="#ccc" stroke-width="2.5"/>
</svg>
