<svg xmlns="http://www.w3.org/2000/svg" xmlns:xlink="http://www.w3.org/1999/xlink" width="429.315" height="932.168" viewBox="0 0 429.315 932.168">
  <defs>
    <clipPath id="clip-path">
      <rect x="200" y="47" width="429.315" height="932.168" fill="none"/>
    </clipPath>
    <clipPath id="clip-path-2">
      <rect id="Rectangle_7" data-name="Rectangle 7" width="1111.315" height="1026.168" fill="none"/>
    </clipPath>
    <clipPath id="clip-path-3">
      <rect id="Rectangle_5" data-name="Rectangle 5" width="441.973" height="935.063" fill="none"/>
    </clipPath>
    <clipPath id="clip-path-4">
      <rect id="Rectangle_2" data-name="Rectangle 2" width="935.065" height="935.065" fill="none"/>
    </clipPath>
  </defs>
  <g id="Scroll_Group_1" data-name="Scroll Group 1" transform="translate(-200 -47)" clip-path="url(#clip-path)" style="isolation: isolate">
    <g id="Group_14" data-name="Group 14" clip-path="url(#clip-path-2)">
      <rect id="Rectangle_1" data-name="Rectangle 1" width="441.971" height="935.063" transform="translate(194.818 45.553)" fill="#fff"/>
      <g id="Group_11" data-name="Group 11" transform="translate(194.816 45.553)">
        <g id="Group_10" data-name="Group 10" clip-path="url(#clip-path-3)">
          <path id="Path_1" data-name="Path 1" d="M922.473,957.452H60.72A36.656,36.656,0,0,1,24.064,920.8V59.043A36.654,36.654,0,0,1,60.72,22.389H922.473a36.654,36.654,0,0,1,36.656,36.654V920.8a36.656,36.656,0,0,1-36.656,36.656" transform="translate(-169.919 -22.389)" fill="#fff"/>
          <path id="Path_2" data-name="Path 2" d="M263.458,25.2H363.574l22.884,2.059a13.315,13.315,0,0,0,4.767,2.627A949.824,949.824,0,0,1,508.13,73.373a7.6,7.6,0,0,1,2.464,1.734l3.2,3.412a1.3,1.3,0,0,1,.271.488c15.681,46.876,50.127,88.39,105.424,79.021l10.267-1.327q-3.958,19.334-8.452,38.67c-4.008,17.168,5.742,30.3,24.428,28.11a72.4,72.4,0,0,0,26.619-8.991,1.209,1.209,0,0,1,1.626.439,1.144,1.144,0,0,1-.218,1.428c-16.519,16.033-18.576,39.484-17.764,61.23a6.838,6.838,0,0,0,5.823,6.554,85.819,85.819,0,0,0,34.688-1.734,1.763,1.763,0,0,1,2.006.893,43.371,43.371,0,0,0,14.163,16.356c-6.987,22.639-15.058,41.028-35.5,53.322a3.03,3.03,0,0,1-2.409.352,30.7,30.7,0,0,1-7.909-3.276,375.976,375.976,0,0,1-61.391-45.063q-41.7-33.581-81.973-68.893c-25.97-22.8-53.132-41.488-80.592-61.527-47.175-34.42-97.923-65.806-151.273-89.664-31.116-13.919-56.707-24.589-85.709-30a1.015,1.015,0,0,1-.8-1.164.958.958,0,0,1,.5-.678l49.423-26.81a18.764,18.764,0,0,0,8.421-1.056" transform="translate(17.38 -19.484)" fill="#de6389"/>
          <path id="Path_3" data-name="Path 3" d="M282.986,25.2H317.6l-4.143,1.516-7.583.543Z" transform="translate(97.97 -19.484)" fill="#5d798f"/>
          <path id="Path_4" data-name="Path 4" d="M302.1,25.2H697.669q19.09,11.942,34.5,34.825l1.681,5.335V173.491a15.462,15.462,0,0,1-8.043.189,1.187,1.187,0,0,1-.977-1.626c2.629-10.128,2.385-44.9-16.924-37.8a62.269,62.269,0,0,0-14.7,7.581,3.479,3.479,0,0,1-4.279-.189,82.52,82.52,0,0,0-36.831-17.954q1.978-1.978.623-1.652c20.013-8.936,30.792-70.058,2.547-74.093-13.406-1.923-28.058,8.1-36.479,18.442a2.031,2.031,0,0,1-3.493-.568Q607.327,43.881,587.8,32.833C566.464,20.784,559.152,44.046,560.4,60.158a1.948,1.948,0,0,1-1.652,2.112,106.116,106.116,0,0,0-11.536,2.464c-9.37,2.574-6.444,11.158-7.772,18.118q-.269,1.379-1.571.893a10.21,10.21,0,0,1-5.144-4.523c-11.429-18.2-30.764-19.416-50.75-18.253C463.394,62.054,443.9,70.1,425.157,75.458a3.719,3.719,0,0,1-2.6-.216,772.887,772.887,0,0,0-124.6-48.53Z" transform="translate(113.463 -19.484)" fill="#0090d8"/>
          <path id="Path_5" data-name="Path 5" d="M301.817,25.943a772.879,772.879,0,0,1,124.6,48.528,3.7,3.7,0,0,0,2.6.218c18.741-5.363,38.241-13.406,56.817-14.489,19.986-1.164,39.319.055,50.748,18.253l-3.493,1.489C526.719,71.763,520,66.05,509.036,64.723c-29.057-3.548-50.994,3.113-80.05,14.948a1.1,1.1,0,0,0-.7,1.516c9.614,28.949,35.911,68.921,69.491,70.382l27.024,2.193a1.766,1.766,0,0,1,1.571,1.192l.893,2.3c-55.3,9.371-89.743-32.143-105.424-79.021a1.265,1.265,0,0,0-.271-.486l-3.2-3.412A7.6,7.6,0,0,0,415.9,72.6,949.929,949.929,0,0,0,299,29.111a13.276,13.276,0,0,1-4.769-2.627Z" transform="translate(109.605 -18.712)" fill="#64574c"/>
          <path id="Path_6" data-name="Path 6" d="M180.956,59.5c-.132-.1-.24-.185-.389-.293.171.523.3.582.389.293" transform="translate(-7.996 15.701)" fill="#006989"/>
          <path id="Path_7" data-name="Path 7" d="M247.563,194.652q-12.293-20.61-31.712-27.677c15.111-4.25,29.681,17.089,36.424,28.273a1.3,1.3,0,0,1-1.949,1.679Z" transform="translate(28.51 126.633)" fill="#0090d8"/>
          <path id="Path_8" data-name="Path 8" d="M368.081,96.626a95.459,95.459,0,0,0-29.549,25.97c-31.856,25.508-58.866,46.748-99.15,58.982a1.27,1.27,0,0,0-.808,1.5,1.216,1.216,0,0,0,1.154.922l23.085.348a249.738,249.738,0,0,0,72.488-4.271c1.27-.348,1.5.116.692,1.038L326.76,192.2c-48.133,49.287-28.511,141.743,6.81,191.491a104.689,104.689,0,0,0,11.2,12.812l-2.309,2.655a2.149,2.149,0,0,0-2.193.114c-17.545,10.273-36.127,15.005-55.057,22.047-19.622,7.272-33.59,10.157-28.857,33.7,2.309,11.888,5.542,22.393,5.078,33.82-.576,16.5-.808,24.586-1.729,40.975l-2.771-1.038a2.347,2.347,0,0,0-1.27-1.963,377.815,377.815,0,0,1-63.944-39.936c-25.51-19.738-48.133-36.821-72.258-63.6a462.9,462.9,0,0,1-56.211-82.529,555.518,555.518,0,0,1-30.357-69.6,6.26,6.26,0,0,0,.576,1.27Q8.706,207.317,1.03,144.873c-5.424-45.016,10.5-93.725,49.633-119.7H77.556l-.23,1.731c3.347-1.27,6.232-1.5,8.541-.578l12-1.154h87.261a28.2,28.2,0,0,0,12.812.578c62.561,19.39,116.578,35.665,170.022,67.291a5.045,5.045,0,0,1-.232,1.731,2.593,2.593,0,0,1,.578.346c.692.578.576,1.04-.232,1.5" transform="translate(-194.816 -19.503)" fill="#0075a3"/>
          <path id="Path_9" data-name="Path 9" d="M224.321,208.088l-3.141,12.484a11.719,11.719,0,0,1-6.96-1.841,2.094,2.094,0,0,1-.893-2.411l1.518-6.254a2.063,2.063,0,0,1,2.083-1.707Z" transform="translate(25.808 169.741)" fill="#0090d8"/>
          <path id="Path_10" data-name="Path 10" d="M137.868,245.111l1.056,1.571q1.624,2.356-1.137,1.6L130.8,246.3a1.409,1.409,0,0,1-.962-1.744,1.389,1.389,0,0,1,.151-.342l.73-1.274a.731.731,0,0,1,1.3.136q.705,1.95,3.168,1.137a2.132,2.132,0,0,1,2.682.893" transform="translate(-60.54 205.456)" fill="#0090d8"/>
          <path id="Path_11" data-name="Path 11" d="M947.328,458.367c0,.116-.116.116-.232,0L739.678,325.4,721.672,306.93l1.848-1.961q-41.726-33.59-81.951-68.795C615.6,213.32,588.357,194.622,561,174.538c-47.21-34.4-98-65.794-151.322-89.571C378.515,71,353,60.381,323.918,54.957a1.533,1.533,0,0,1-.692-.578.97.97,0,0,1,.462-1.27l49.4-26.894a10.916,10.916,0,0,0-7.618.578C350,35.219,334.884,43.876,319.763,53.109a3.75,3.75,0,0,1-2.539.462c-28.279-2.423-56.559-9.811-84.49-15.581-14.2-2.887-41.785-6.926-62.447-12.812h-79.3a28.2,28.2,0,0,0,12.812.576c62.561,19.392,116.578,35.667,170.02,67.293,44.786,25.624,79.76,48.017,115.772,76.065,9.925,7.734,22.391,20.2,34.4,29.549a511.008,511.008,0,0,1,48.363,42.245q42.245,43.112,58.058,63.023c30.243,38.206,61.291,75.373,91.3,114.155a108.972,108.972,0,0,0,11.542,15.351c18.122,20.662,35.781,41.785,52.75,63.6,17.083,21.813,32.9,40.4,49.747,60.481a1.753,1.753,0,0,0,2.077.694,8.047,8.047,0,0,1,.924-.348l21.7,26.2a2.51,2.51,0,0,0-1.618,2.309A5.981,5.981,0,0,0,760.8,590.3c29.895,33.706,59.56,65.332,95.225,94.649a13.861,13.861,0,0,1,1.963,2.425c1.038,1.729,1.845,2.539,2.307,2.423a626.1,626.1,0,0,0,82.067,44.438c2.771,1.27,4.619,1.27,5.656,0V458.021a.483.483,0,0,0-.692.346m-8.657,63.714c0-.116.232-.232.232-.346a1.479,1.479,0,0,0,.114.692c-.23-.116-.23-.23-.346-.346" transform="translate(-100.674 -19.503)" fill="#0090d8"/>
          <path id="Path_12" data-name="Path 12" d="M595.32,480.268c-15.813,16.737-36.821,23.547-62.791,20.2a12.12,12.12,0,0,1-6.118-2.193,1.276,1.276,0,0,1,1.04-2.309c27.01,5.54,49.517-1.27,67.293-20.314,10.849-11.542,6.81-38.206,4.617-52.52,0-.23-.232-.46-.462-.692a1.123,1.123,0,0,0-1.5.346,39.075,39.075,0,0,1-27.01,17.893.548.548,0,0,1-.348-1.04c13.736-6.81,30.357-15.351,27.242-31.626a272.287,272.287,0,0,0-8.427-32.782c0-.23-.114-.346-.23-.576a1.788,1.788,0,0,0-2.423-.232,125.5,125.5,0,0,0-32.9,38.784c-.462.808-.924,1.27-1.618,1.27-.922.114-1.27-.348-.808-1.156a113.3,113.3,0,0,1,35.781-43.285,2.2,2.2,0,0,0,.924-2.653l-5.77-21.931c0-.116-.116-.23-.116-.346a3.77,3.77,0,0,0-4.846-2.309c-27.472,9.465-40.977,31.4-65.1,44.438A161.646,161.646,0,0,1,488.9,397.508a2.938,2.938,0,0,1-1.732,0,2.662,2.662,0,0,1-1.845-3.231c3.923-13.968,8.425-30.935,8.771-44.324.692-34.166-15.813-54.133-31.048-83.1-7.85,8.2-18.007,12.234-30.357,12.12a1.667,1.667,0,0,1-.81-.232,1.868,1.868,0,0,1-.808-2.655l5.078-9.811,2.887-19.968a1.216,1.216,0,0,0-.578-1.04,1.006,1.006,0,0,0-1.386.462q-12.119,22.334-36.7,29.087a2.361,2.361,0,0,1-1.27,0,2.026,2.026,0,0,1-1.27-2.539c11.426-33.936-9.7-72.718-32.318-97.072l-41.669-42.477a83.537,83.537,0,0,1-17.2-24.93c-1.27-2.887-2.885-3.117-4.846-.81-28.511,33.36-54.019,65.1-65.908,107.345a103.041,103.041,0,0,0-3.463,17.661,149.523,149.523,0,0,0-1.386,39.36c2.309,23.317,4.849,49.979,13.62,71.794.346,1.04.116,1.27-.808.578a141.418,141.418,0,0,1-30.473-27.01,2.2,2.2,0,0,0-3-.462c-17.545,10.273-36.127,15.005-55.057,22.047-19.622,7.272-33.588,10.157-28.857,33.7,2.309,11.888,5.542,22.393,5.081,33.82-.578,16.5-1.27,33.012-2.193,49.4,1.961,14.314,4.962,42.593,26.086,32.2,9.579-4.732,39.474-18.236,43.861-4.387a3.505,3.505,0,0,1-.114,2.423c-3.695,8.543-20.2,18.816-28.049,23.663-29.895,18.468-3.693,45.248-3.117,68.333a429.144,429.144,0,0,1-1.5,48.015c-2.885,32.55,2.885,60.6,35.435,74.333,14.2,6,25.856,8.543,34.973,7.85a251.626,251.626,0,0,0,36.7.694c19.508-1.386,43.517-1.847,72.026-1.617,8.887,0,18.049,12.352,21.05,20.086l15.7,55.057c0,.23.116.346.23.576a2.635,2.635,0,0,0,3.579.924l33.82-19.852c27.356-13.274,57.942-27.242,86.915-33.936,26.2-7.5,53.671-9.349,80.8-11.313,1.038,0,1.384-.576,1.27-1.613-4.965-23.317-8.468-55.059-4.2-78.49.346-2.425-.578-3.349-3-2.887a222.7,222.7,0,0,1-52.518,4.157h-.116a1.77,1.77,0,0,1-1.5-1.848,5.545,5.545,0,0,1,1.27-2.193c18.354-20.084,35.205-40.4,45.94-65.446a375.545,375.545,0,0,0,25.162-87.261c.924-5.886-.576-6.694-4.733-2.423M303.874,305.284a1.558,1.558,0,0,1,.462-.346c.116,0,.116.116.23.116-.23,0-.578,0-.692.23m90.608-59.444c-.116.114-.346.114-.462.23.23-.23.462-.346.578-.462-.116,0,0,.116-.116.232" transform="translate(-64.931 63.517)" fill="#0090d8"/>
          <path id="Path_13" data-name="Path 13" d="M766.755,557.286a62.578,62.578,0,0,1-5.85-7.935c-4.5-6.932-13-13.893-16.6-18.116-8.069-9.532-15.274-17.874-25.484-25.565C701,492.239,683.1,477.288,663.144,467.215,629.7,450.4,600.182,440.541,561.32,443.926c-13.378-23.235-25.915-40.161-54.188-39.862a408.243,408.243,0,0,0-90.665,11.1c-67.891,19.117-129.038,49.61-174.59,104.531a46.816,46.816,0,0,0-8.151,14.731q-12.1,34.987-22.8,70.465a1.553,1.553,0,0,0,.814,2l2.22,1.219H803.5l3.764-1.109a548.33,548.33,0,0,0-40.511-49.72m-252.311-69c-.092-.087-.167-.191-.267-.271.051.041.124.043.173.083s.041.136.094.187m1.306,2.958a3.514,3.514,0,0,0,0-.362,3.515,3.515,0,0,1,0,.362" transform="translate(23.308 372.5)" fill="#0075a3"/>
          <path id="Path_14" data-name="Path 14" d="M823.908,258.939H320.929A43.141,43.141,0,0,1,277.787,215.8V0H823.908Z" transform="translate(92.591 -45.553)" fill="#0090d8"/>
          <path id="Path_15" data-name="Path 15" d="M205.35,68.428s197.788,63.5,365.481,228.257S858.938,491.668,858.938,491.668L870.707,259.3S624.655,107.851,380.615,34.112C254.771-3.913,242.531,15.1,242.531,15.1L223.814,28.68Z" transform="translate(17.645 -34.849)" fill="#009eff"/>
          <path id="Path_16" data-name="Path 16" d="M915.247,869.656a200.366,200.366,0,0,0-18.008-21.8q-30.953-31.09-71.3-43.112c-21.15-6.311-40.7-7.99-56.841-26.757-16.9-14.082-31.063-35.8-11.239-56.03q21.828-22.206,32.579-35.15,1.029-1.245,1.679.244a73.712,73.712,0,0,0,21.638,28.3,2.789,2.789,0,0,0,4.468-2.816c-2.844-12.32,1.6-27.378,6.309-38.752l8.639-18.523q-.732.217-2.3-2.33a9.433,9.433,0,0,0-2.031-2.435c-35.665-29.356-65.346-61.015-95.215-94.728q-3.818-4.306-.3-6.175L711.6,523.431c-.36.108-.678.2-.948.271a1.98,1.98,0,0,1-2.112-.7c-16.845-20.039-32.66-38.591-49.747-60.5q-25.4-32.579-52.754-63.558a108.774,108.774,0,0,1-11.455-15.382c-30-38.7-61.065-75.908-91.288-114.092q-15.788-19.929-58.144-63.017c-14.676-14.948-31.71-29.354-48.337-42.272-12.025-9.317-24.4-21.8-34.339-29.545-36.072-28.056-71.033-50.424-115.852-76.124a7.27,7.27,0,0,1-.153,1.7c.171.13.362.271.5.385q1.029.867-.163,1.542a95.627,95.627,0,0,0-29.6,26c-31.793,25.455-58.9,46.768-99.115,58.98a1.219,1.219,0,0,0,.323,2.385l23.128.378a248.161,248.161,0,0,0,72.415-4.332q1.92-.409.676,1.109l-9.233,11.1c-48.068,49.26-28.489,141.633,6.906,191.432a105.546,105.546,0,0,0,14.029,15.451c-.954-.877-1.945-1.75-2.881-2.633l-2.309,2.653a1.339,1.339,0,0,1,.808.578,141.419,141.419,0,0,0,30.473,27.01c.924.692,1.154.462.808-.578-8.771-21.815-11.313-48.477-13.62-71.794a149.524,149.524,0,0,1,1.386-39.36,103.043,103.043,0,0,1,3.463-17.661c11.888-42.245,37.4-73.985,65.906-107.345,1.963-2.307,3.579-2.077,4.849.81a83.539,83.539,0,0,0,17.191,24.92l-.026.051,41.732,42.434c22.584,24.346,43.682,63.153,32.308,97.029a2.03,2.03,0,0,0,2.464,2.6q24.614-6.717,36.776-29.138a1.028,1.028,0,0,1,1.921.623l-2.816,20.013-5.172,9.774a1.945,1.945,0,0,0-.22.871,1.923,1.923,0,0,0,1.9,1.947q18.525.162,30.3-12.025c15.3,28.975,31.82,48.88,31.034,83.056-.3,13.406-4.849,30.359-8.692,44.333a2.615,2.615,0,0,0,.071,1.64,2.684,2.684,0,0,0,3.449,1.554,169.869,169.869,0,0,0,22.882-10.183C544.4,422.772,558,400.784,585.486,391.3c.081-.026.165-.053.248-.075a3.806,3.806,0,0,1,4.653,2.7l5.823,22.017a2.288,2.288,0,0,1-.922,2.6,113.337,113.337,0,0,0-35.828,43.275q-.623,1.328.84,1.219a2.091,2.091,0,0,0,1.6-1.274,125.209,125.209,0,0,1,32.9-38.778,1.647,1.647,0,0,1,.537-.293,1.678,1.678,0,0,1,2.116,1.078,276.72,276.72,0,0,1,8.368,32.794c3.113,16.249-13.514,24.751-27.189,31.6a.57.57,0,1,0,.352,1.084A39.558,39.558,0,0,0,606.013,471.3a1.057,1.057,0,0,1,1.923.407c2.167,14.271,6.283,40.892-4.576,52.51q-26.756,28.569-67.35,20.228a1.279,1.279,0,0,0-1.331.507,1.342,1.342,0,0,0,.3,1.849,13.026,13.026,0,0,0,6.175,2.248q38.967,4.874,62.772-20.2,6.174-6.528,4.712,2.356a373.517,373.517,0,0,1-25.185,87.308c-10.751,24.967-27.6,45.387-45.9,65.4a4.376,4.376,0,0,0-1.247,2.248l0,.061a1.626,1.626,0,0,0,1.548,1.7,217.434,217.434,0,0,0,52.536-4.116q3.629-.732,2.979,2.9a178.743,178.743,0,0,0,1.029,70.058q.324,1.541-1.245,1.65c-27.081,1.951-54.567,3.766-80.783,11.266l.922,3.007a408.152,408.152,0,0,1,90.665-11.1c28.273-.3,40.811,16.627,54.188,39.862,38.861-3.386,68.38,6.472,101.823,23.288,19.96,10.073,37.86,25.022,55.678,38.455,10.21,7.691,17.414,16.031,25.484,25.563,3.6,4.226,12.1,11.186,16.6,18.118a62.59,62.59,0,0,0,5.85,7.935,547.968,547.968,0,0,1,40.511,49.718,73.322,73.322,0,0,0,10.346-21.907,1.634,1.634,0,0,1,1.733-1.355l2.49.028q.027-.678,2.167-1.219V885.282a33.946,33.946,0,0,0-5.579-15.626" transform="translate(-73.514 14.985)" fill="#006989"/>
          <g id="Group_3" data-name="Group 3" transform="translate(-145.854 40.823)" style="mix-blend-mode: soft-light;isolation: isolate">
            <g id="Group_2" data-name="Group 2" transform="translate(0 -41)">
              <g id="Group_1" data-name="Group 1" clip-path="url(#clip-path-4)">
                <path id="Path_17" data-name="Path 17" d="M922.473,957.452H60.72A36.656,36.656,0,0,1,24.064,920.8V59.043A36.654,36.654,0,0,1,60.72,22.389H922.473a36.654,36.654,0,0,1,36.656,36.654V920.8a36.656,36.656,0,0,1-36.656,36.656" transform="translate(-24.064 -22.387)" fill="#00e7ff"/>
              </g>
            </g>
          </g>
          <g id="Group_6" data-name="Group 6" transform="translate(-145.854 1.355)" style="mix-blend-mode: color;isolation: isolate">
            <g id="Group_5" data-name="Group 5" transform="translate(0)">
              <g id="Group_4" data-name="Group 4" clip-path="url(#clip-path-4)">
                <path id="Path_18" data-name="Path 18" d="M922.473,957.452H60.72A36.656,36.656,0,0,1,24.064,920.8V59.043A36.654,36.654,0,0,1,60.72,22.389H922.473a36.654,36.654,0,0,1,36.656,36.654V920.8a36.656,36.656,0,0,1-36.656,36.656" transform="translate(-24.064 -22.387)" fill="#00dbff"/>
              </g>
            </g>
          </g>
          <g id="Group_9" data-name="Group 9" transform="translate(-145.854 1.355)" opacity="0.3" style="mix-blend-mode: soft-light;isolation: isolate">
            <g id="Group_8" data-name="Group 8" transform="translate(0)">
              <g id="Group_7" data-name="Group 7" clip-path="url(#clip-path-4)">
                <path id="Path_19" data-name="Path 19" d="M922.473,957.452H60.72A36.656,36.656,0,0,1,24.064,920.8V59.043A36.654,36.654,0,0,1,60.72,22.389H922.473a36.654,36.654,0,0,1,36.656,36.654V920.8a36.656,36.656,0,0,1-36.656,36.656" transform="translate(-24.064 -22.387)" fill="#00fff8"/>
              </g>
            </g>
          </g>
        </g>
      </g>
    </g>
  </g>
</svg>
