<svg xmlns="http://www.w3.org/2000/svg" width="108.769" height="185.686" viewBox="0 0 108.769 185.686">
  <g id="Group_25" data-name="Group 25" transform="translate(-161.87 -390.981)">
    <g id="Group_24" data-name="Group 24">
      <text id="REMI" transform="translate(170.526 566.667)" fill="#fff" font-size="39" font-family="SegoeUI, Segoe UI"><tspan x="0" y="0" letter-spacing="-0.019em">REM</tspan><tspan y="0">I</tspan></text>
      <path id="Path_20" data-name="Path 20" d="M286.318,327.851l-9.487-81.66a12.956,12.956,0,0,0-12.865-11.469h-9a23.232,23.232,0,0,0-44.86-3.943h8.226a15.7,15.7,0,0,1,28.937,3.943h-47.2a12.984,12.984,0,0,0-12.865,11.469l-9.487,81.66a12.969,12.969,0,0,0,12.865,14.432h62.156L248.27,334.7l-57.684.039a5.382,5.382,0,0,1-4.037-1.813,5.265,5.265,0,0,1-1.32-4.206l9.487-81.66a5.389,5.389,0,0,1,5.357-4.792h63.892a5.405,5.405,0,0,1,5.375,4.792l9.49,81.66a5.215,5.215,0,0,1-1.341,4.206,5.285,5.285,0,0,1-3.848,1.774H264.72l-20.487-33.767a20.121,20.121,0,0,0,9.848-7.752,21.116,21.116,0,0,0,3.508-11.827,20.653,20.653,0,0,0-6.582-15.7q-6.6-6.226-18.487-6.226H219.956a4.463,4.463,0,0,0-.49-.055h-2.527a4.834,4.834,0,0,0-.511.055h-.094a7.7,7.7,0,0,0-4.753,2.132,7.536,7.536,0,0,0-2.3,4.7l-6,56.685a3.215,3.215,0,0,0,2.848,3.528c.114,0,.226.018.34.018a3.211,3.211,0,0,0,3.188-2.887l2.151-20.277h9.319a2.308,2.308,0,0,0,.527-.057h4.812c3.941,0,6.885-.039,8.79-.132a3.151,3.151,0,0,1,2.848,1.51l21.429,36.33a2.762,2.762,0,0,0,2.4,1.359h2.187a2.838,2.838,0,0,0,.415-.057h9.357v-.039a12.889,12.889,0,0,0,12.43-14.393m-53.081-30.973h-16.9v.039h-3.847l3.186-29.976a1.25,1.25,0,0,1,1.113-1.113H233.33a16.631,16.631,0,0,1,12.035,4.472,15.443,15.443,0,0,1,0,22.108c-3.093,2.981-7.148,4.47-12.128,4.47" transform="translate(-15.768 175.763)" fill="#fff"/>
    </g>
  </g>
</svg>
