<svg xmlns="http://www.w3.org/2000/svg" width="29" height="28" viewBox="0 0 29 28">
  <g id="Group_1045" data-name="Group 1045" transform="translate(-143.699 -13)">
    <g id="Component_1_13" data-name="Component 1 – 13" transform="translate(143.699 13)">
      <ellipse id="Ellipse_2" data-name="Ellipse 2" cx="14.5" cy="14" rx="14.5" ry="14" fill="#fff"/>
      <path id="Path_1276" data-name="Path 1276" d="M8.536,17.036A2.367,2.367,0,0,1,7.345,16.7a10.861,10.861,0,0,1-1.937-1.486A40.221,40.221,0,0,1-.075,9.177,7.3,7.3,0,0,1-1.5,4.635,6.439,6.439,0,0,1-.24.964,6.137,6.137,0,0,1,2.891-1.282,4.962,4.962,0,0,1,4.3-1.5h.052a6.966,6.966,0,0,1,4.2,1.449,7.121,7.121,0,0,1,3.046-1.365A6.647,6.647,0,0,1,12.658-1.5,5.563,5.563,0,0,1,17.051.639a6.609,6.609,0,0,1,1.513,3.824,7.2,7.2,0,0,1-.993,4.045,20.313,20.313,0,0,1-2.491,3.241l-.006.007a38.734,38.734,0,0,1-3.877,3.9,8.849,8.849,0,0,1-1.529,1.086A2.363,2.363,0,0,1,8.536,17.036ZM4.3.849a2.592,2.592,0,0,0-.716.11A4.029,4.029,0,0,0,.849,4.7a4.937,4.937,0,0,0,.981,3.11A37.965,37.965,0,0,0,7,13.495,8.72,8.72,0,0,0,8.516,14.67l.021.011.015-.007a6.455,6.455,0,0,0,1.12-.8A36.517,36.517,0,0,0,13.316,10.2l.006-.007A18.267,18.267,0,0,0,15.54,7.332a4.477,4.477,0,0,0-.3-5.2A3.205,3.205,0,0,0,12.658.846,4.3,4.3,0,0,0,11.979.9,5.393,5.393,0,0,0,9.615,2.092c-.055.042-.1.077-.137.111a1.314,1.314,0,0,1-1.869-.017c-.04-.034-.08-.069-.133-.11A4.745,4.745,0,0,0,4.356.849H4.3Z" transform="translate(6.12 6.48)" fill="red"/>
      <path id="Path_1291" data-name="Path 1291" d="M16.372,8.948a10.766,10.766,0,0,0,3.4-1.046H22.8l1.627,2.906V13.6s1.278.93-.814,2.79-5.76,7.672-7.239,7.439S6.757,14.993,7.686,11.622,12.736,6.972,16.372,8.948Z" transform="translate(-1.927 -1.439)" fill="red"/>
    </g>
  </g>
</svg>
