<svg id="Component_1_2" data-name="Component 1 – 2" xmlns="http://www.w3.org/2000/svg" width="29" height="28" viewBox="0 0 29 28">
  <ellipse id="Ellipse_2" data-name="Ellipse 2" cx="14.5" cy="14" rx="14.5" ry="14" fill="#fff"/>
  <path id="Path_1276" data-name="Path 1276" d="M6.489,13.256a1.884,1.884,0,0,1-.948-.265A8.646,8.646,0,0,1,4,11.808,32.019,32.019,0,0,1-.365,7,5.811,5.811,0,0,1-1.5,3.384,5.126,5.126,0,0,1-.5.462,4.886,4.886,0,0,1,2-1.327,3.95,3.95,0,0,1,3.12-1.5h.041A5.546,5.546,0,0,1,6.509-.345,5.669,5.669,0,0,1,8.934-1.432,5.291,5.291,0,0,1,9.771-1.5a4.429,4.429,0,0,1,3.5,1.7,5.261,5.261,0,0,1,1.2,3.044,5.734,5.734,0,0,1-.791,3.22A16.171,16.171,0,0,1,11.7,9.046l0,.005a30.835,30.835,0,0,1-3.087,3.1,7.044,7.044,0,0,1-1.217.864A1.881,1.881,0,0,1,6.489,13.256ZM3.12.37a2.063,2.063,0,0,0-.57.088A3.207,3.207,0,0,0,.37,3.432a3.93,3.93,0,0,0,.781,2.476,30.223,30.223,0,0,0,4.117,4.529,6.942,6.942,0,0,0,1.206.935l.016.009.012-.006a5.139,5.139,0,0,0,.891-.64,29.071,29.071,0,0,0,2.9-2.92l0-.005a14.542,14.542,0,0,0,1.766-2.278,3.564,3.564,0,0,0-.239-4.14A2.551,2.551,0,0,0,9.771.368,3.419,3.419,0,0,0,9.23.413a4.293,4.293,0,0,0-1.882.946c-.044.033-.077.061-.109.088a1.046,1.046,0,0,1-1.488-.013c-.032-.027-.064-.055-.106-.088A3.777,3.777,0,0,0,3.162.37H3.12Z" transform="translate(8.167 8.37)" fill="#ccc"/>
</svg>
