<svg xmlns="http://www.w3.org/2000/svg" width="27.628" height="27.619" viewBox="0 0 27.628 27.619">
  <g id="Group_1045" data-name="Group 1045" transform="translate(-21.498 -55.605)">
    <path id="Union_3" data-name="Union 3" d="M-3863.2,24.513a4.738,4.738,0,0,1-4.527-3.4c-.691,0-1.444.007-2.37.007h-2.287a2.5,2.5,0,0,1-2.458-1.616,2.472,2.472,0,0,1,.781-2.787,7.141,7.141,0,0,0,2.466-5.545c0-.383-.007-.776-.015-1.156a18.621,18.621,0,0,1,.086-2.841,8.167,8.167,0,0,1,5.062-6.726,7.4,7.4,0,0,1,1.2-.4,1.675,1.675,0,0,1,.416-.054,1.346,1.346,0,0,1,1.319,1.008,1.229,1.229,0,0,1-.119.944,1.515,1.515,0,0,1-.936.7,5.6,5.6,0,0,0-3.8,3.147,5.739,5.739,0,0,0-.527,2.373c-.01.482,0,.978,0,1.457a23.805,23.805,0,0,1-.069,2.73,9.683,9.683,0,0,1-2.959,6.067c1.822,0,3.619,0,5.145,0h6.928l5.419,0a9.734,9.734,0,0,1-2.009-2.739,1.367,1.367,0,0,1,.524-1.908,1.407,1.407,0,0,1,.642-.163,1.375,1.375,0,0,1,1.24.867,7.48,7.48,0,0,0,1.769,2.272,2.439,2.439,0,0,1,.719,2.776,2.473,2.473,0,0,1-2.379,1.589h-.394l-1.9,0c-.928,0-1.694,0-2.41-.01h-.02a4.807,4.807,0,0,1-1.708,2.467,4.664,4.664,0,0,1-2.822.93Zm0-.5h0Zm-.019-2.2h.025a1.888,1.888,0,0,0,1.524-.688h-.375l-1.171,0-1.179,0h-.333A1.891,1.891,0,0,0-3863.214,21.81Z" transform="translate(3896.498 58.712)" fill="#323232"/>
    <path id="Path_1286" data-name="Path 1286" d="M154.267,14.674a7.337,7.337,0,1,1,7.324-7.392,7.3,7.3,0,0,1-7.324,7.392M148.612,7.36A5.643,5.643,0,0,0,159.9,7.323a5.643,5.643,0,1,0-11.286.037" transform="translate(-112.465 55.606)" fill="#00d5ff"/>
    <path id="Path_1287" data-name="Path 1287" d="M213.206,56.214c0,.72.012,1.44,0,2.159s-.545,1.12-1.138.9a.811.811,0,0,1-.555-.854c.005-1.058-.012-2.117.009-3.175.007-.345-.082-.466-.443-.455-.633.018-.995-.313-.989-.835.006-.506.395-.838,1.007-.849.367-.007.734-.008,1.1,0a.913.913,0,0,1,1.01,1.03c.008.691,0,1.383,0,2.075" transform="translate(-170.28 7.002)" fill="#00d5ff"/>
  </g>
</svg>
