<svg xmlns="http://www.w3.org/2000/svg" width="25.71" height="24.174" viewBox="0 0 25.71 24.174">
  <path id="Union_1" data-name="Union 1" d="M-3870.243,24.172a2.708,2.708,0,0,1-2.828-2.821q0-3.444,0-6.888v-1.69a1.339,1.339,0,0,1-.69.2,1.208,1.208,0,0,1-.867-.375,1.288,1.288,0,0,1,.1-1.9q2.39-2.392,4.783-4.783l2.392-2.391.744-.746c.489-.49.994-1,1.495-1.493A4.242,4.242,0,0,1-3862.14,0a4.192,4.192,0,0,1,2.951,1.278c2.4,2.389,4.83,4.823,7.181,7.176l2.2,2.207a1.311,1.311,0,0,1,.375,1.6,1.251,1.251,0,0,1-1.123.709,1.286,1.286,0,0,1-.674-.195q0,4.236,0,8.473V21.3a3.256,3.256,0,0,1-.037.584,2.706,2.706,0,0,1-2.77,2.293h-13.946Zm10.22-2.543h1.976l.041.007a.474.474,0,0,0,.052,0h.012c.429-.006.865-.009,1.3-.01h.158c.415,0,.836,0,1.255,0h1.078c.276,0,.335-.052.336-.053s.05-.057.051-.327q0-1.788,0-3.576v-2.96c0-1.412,0-2.873,0-4.309,0-.106-.013-.121-.049-.155-1.126-1.122-2.268-2.263-3.373-3.368-1.247-1.246-2.536-2.535-3.807-3.8a1.65,1.65,0,0,0-1.152-.541,1.689,1.689,0,0,0-1.176.556c-1.226,1.222-2.472,2.467-3.676,3.671q-1.738,1.736-3.474,3.47a.163.163,0,0,0-.064.15c0,2.662,0,5.366,0,7.983v2.9c0,.248.05.3.051.3s.055.053.32.053h.234l1.838,0c.689,0,1.218,0,1.717.011h.01a.476.476,0,0,0,.052,0l.044-.008h2.037l.04.008h.026c.543,0,.957-.007,1.344-.008h1.336c.389,0,.8,0,1.341.008h.034l.043-.008Z" transform="translate(3875)" fill="#00d5ff"/>
</svg>
