<svg xmlns="http://www.w3.org/2000/svg" xmlns:xlink="http://www.w3.org/1999/xlink" width="37" height="37" viewBox="0 0 37 37">
  <defs>
    <clipPath id="clip-path">
      <rect id="Rectangle_74" data-name="Rectangle 74" width="18.511" height="18.255" fill="#fff"/>
    </clipPath>
  </defs>
  <g id="Group_228" data-name="Group 228" transform="translate(-368 -119)">
    <g id="Group_227" data-name="Group 227">
      <circle id="Ellipse_1" data-name="Ellipse 1" cx="18.5" cy="18.5" r="18.5" transform="translate(368 119)" fill="#00d5ff"/>
    </g>
    <g id="Group_73" data-name="Group 73" transform="translate(377.245 128.373)" clip-path="url(#clip-path)">
      <path id="Path_1282" data-name="Path 1282" d="M7.5,0a7.483,7.483,0,0,1,7.28,5.862,7.252,7.252,0,0,1-.813,5.317.342.342,0,0,0,.068.5q1.995,1.971,3.969,3.963a1.491,1.491,0,0,1-1.855,2.33,3.51,3.51,0,0,1-.387-.346c-1.268-1.266-2.54-2.53-3.8-3.808-.178-.181-.286-.16-.475-.039A7.477,7.477,0,1,1,5.589.24,5.715,5.715,0,0,1,6.181.115,7.855,7.855,0,0,1,7.5,0M2.434,7.474A5.049,5.049,0,1,0,7.482,2.427,5.05,5.05,0,0,0,2.434,7.474" transform="translate(0 0)" fill="#fff"/>
    </g>
  </g>
</svg>
