<svg xmlns="http://www.w3.org/2000/svg" width="99.207" height="115.946" viewBox="0 0 99.207 115.946">
  <path id="Path_20" data-name="Path 20" d="M276.763,317.949l-8.653-74.481a11.817,11.817,0,0,0-11.734-10.461H248.17a21.189,21.189,0,0,0-40.916-3.6h7.5a14.318,14.318,0,0,1,26.393,3.6H198.1a11.843,11.843,0,0,0-11.734,10.461l-8.653,74.481a11.829,11.829,0,0,0,11.734,13.163H246.14l-4.079-6.916-52.613.035a4.909,4.909,0,0,1-3.682-1.653,4.8,4.8,0,0,1-1.2-3.836l8.653-74.481a4.915,4.915,0,0,1,4.886-4.37h58.275a4.93,4.93,0,0,1,4.9,4.37l8.655,74.481a4.756,4.756,0,0,1-1.223,3.836A4.82,4.82,0,0,1,265.2,324.2h-8.137l-18.686-30.8a18.352,18.352,0,0,0,8.982-7.07,19.26,19.26,0,0,0,3.2-10.787,18.837,18.837,0,0,0-6-14.315q-6.015-5.679-16.861-5.679H216.236a4.073,4.073,0,0,0-.447-.05h-2.3a4.411,4.411,0,0,0-.466.05h-.085a7.025,7.025,0,0,0-4.335,1.945,6.874,6.874,0,0,0-2.1,4.285l-5.471,51.7a2.932,2.932,0,0,0,2.6,3.218c.1,0,.206.017.31.017a2.929,2.929,0,0,0,2.908-2.633l1.962-18.494h8.5a2.106,2.106,0,0,0,.481-.052h4.389c3.595,0,6.28-.035,8.017-.121a2.874,2.874,0,0,1,2.6,1.377l19.545,33.136a2.519,2.519,0,0,0,2.186,1.24h1.995a2.589,2.589,0,0,0,.379-.052h8.535v-.035a11.756,11.756,0,0,0,11.337-13.128M228.348,289.7H212.933v.035h-3.509l2.906-27.341a1.14,1.14,0,0,1,1.015-1.015h15.089a15.169,15.169,0,0,1,10.977,4.079,14.085,14.085,0,0,1,0,20.165,15.29,15.29,0,0,1-11.062,4.077" transform="translate(-177.638 -215.218)" fill="#f0f0f0"/>
</svg>
