<svg xmlns="http://www.w3.org/2000/svg" width="29.937" height="28.014" viewBox="0 0 29.937 28.014">
  <path id="Union_4" data-name="Union 4" d="M-3852.855,28.014a3.166,3.166,0,0,1-3.191-3.163,3.172,3.172,0,0,1,.9-2.271,3.171,3.171,0,0,1,2.25-.952h.033a3.19,3.19,0,0,1,3.2,3.142,3.226,3.226,0,0,1-.91,2.3,3.176,3.176,0,0,1-2.27.945Zm-.6-3.788a.841.841,0,0,0-.236.6.808.808,0,0,0,.836.827.809.809,0,0,0,.841-.821.823.823,0,0,0-.818-.85h-.021A.839.839,0,0,0-3853.454,24.226Zm-9.683,3.787a3.179,3.179,0,0,1-2.275-.935,3.185,3.185,0,0,1-.919-2.284,3.164,3.164,0,0,1,3.2-3.168h.014a3.159,3.159,0,0,1,3.177,3.2,3.16,3.16,0,0,1-3.182,3.188Zm-.6-3.785a.846.846,0,0,0-.235.614.81.81,0,0,0,.839.815h.009a.808.808,0,0,0,.826-.835.818.818,0,0,0-.828-.837h-.008A.835.835,0,0,0-3863.738,24.228Zm.944-4.4h-2.25A3.334,3.334,0,0,1-3868.536,17c-.572-2.556-1.167-5.153-1.742-7.664q-.35-1.527-.7-3.055c-.049-.214-.1-.427-.148-.641-.1-.454-.214-.924-.314-1.389a.638.638,0,0,0-.41-.5c-.757-.331-1.507-.688-2.231-1.032a1.4,1.4,0,0,1-.774-1.928A1.346,1.346,0,0,1-3873.6,0a1.716,1.716,0,0,1,.7.158c.772.35,1.551.717,2.306,1.071l.088.042a3.208,3.208,0,0,1,1.811,2.315l.589,2.582q.922,4.047,1.845,8.092c.106.464.218.936.327,1.391q.1.406.191.811c.111.474.2.545.684.545h14.107c.553,0,.647-.071.765-.58.539-2.312,1.081-4.663,1.606-6.938l.465-2.017.044-.189c.054-.231.11-.47.155-.7a.548.548,0,0,0-.067-.442.514.514,0,0,0-.4-.145c-.3,0-.628-.006-1.029-.006l-1.428,0h-14.479a1.429,1.429,0,0,1-1.58-1.408,1.4,1.4,0,0,1,.386-1.007,1.435,1.435,0,0,1,1.03-.4c.836,0,1.758,0,2.9,0h5.777c.829,0,1.671,0,2.486.009s1.655.009,2.483.009c1.308,0,2.382-.011,3.378-.035a3.388,3.388,0,0,1,2.7,1.284,3.22,3.22,0,0,1,.6,2.781c-.72,3.114-1.538,6.643-2.354,10.078a3.251,3.251,0,0,1-1.158,1.851,3.362,3.362,0,0,1-2.082.681q-3.31,0-6.62,0Z" transform="translate(3875)" fill="#323232"/>
</svg>
