<svg xmlns="http://www.w3.org/2000/svg" width="19.937" height="20.014" viewBox="0 0 19.937 20.014">
  <path id="Union_4" data-name="Union 4" d="M-3860.252,20.014a2.188,2.188,0,0,1-2.125-2.26,2.356,2.356,0,0,1,.6-1.622,2.044,2.044,0,0,1,1.5-.68h.022a2.2,2.2,0,0,1,2.133,2.245,2.4,2.4,0,0,1-.606,1.642,2.046,2.046,0,0,1-1.512.675Zm-.4-2.706a.626.626,0,0,0-.158.431.559.559,0,0,0,.557.591.558.558,0,0,0,.56-.586.57.57,0,0,0-.544-.607h-.014A.539.539,0,0,0-3860.651,17.308Zm-6.449,2.706a2.046,2.046,0,0,1-1.515-.668,2.364,2.364,0,0,1-.612-1.631,2.186,2.186,0,0,1,2.129-2.263h.009a2.185,2.185,0,0,1,2.116,2.285,2.185,2.185,0,0,1-2.119,2.278Zm-.4-2.7a.631.631,0,0,0-.157.438.559.559,0,0,0,.559.582h.006a.559.559,0,0,0,.55-.6.566.566,0,0,0-.551-.6h-.005A.538.538,0,0,0-3867.5,17.309Zm.629-3.146h-1.5a2.264,2.264,0,0,1-2.326-2.018c-.381-1.826-.777-3.681-1.16-5.475q-.233-1.091-.465-2.182l-.1-.458c-.07-.324-.143-.66-.209-.992a.451.451,0,0,0-.273-.359c-.5-.236-1-.491-1.486-.737A1.028,1.028,0,0,1-3874.9.564.894.894,0,0,1-3874.07,0a1.077,1.077,0,0,1,.468.113c.514.25,1.033.512,1.536.765l.059.03a2.271,2.271,0,0,1,1.206,1.654l.393,1.845,1.229,5.781c.071.331.145.668.218.994q.064.29.127.579c.074.338.134.389.456.389h9.395c.369,0,.431-.051.51-.414.359-1.652.72-3.332,1.069-4.957l.31-1.441.029-.135c.036-.165.073-.336.1-.5a.418.418,0,0,0-.045-.315.329.329,0,0,0-.264-.1c-.2,0-.418,0-.685,0l-.951,0h-9.643a.981.981,0,0,1-1.052-1.006,1.042,1.042,0,0,1,.257-.719.923.923,0,0,1,.686-.288c.557,0,1.171,0,1.932,0h3.847c.552,0,1.113,0,1.656.006s1.1.006,1.653.006c.871,0,1.586-.008,2.25-.025a2.2,2.2,0,0,1,1.8.917,2.431,2.431,0,0,1,.4,1.986c-.48,2.225-1.024,4.746-1.568,7.2a2.349,2.349,0,0,1-.771,1.322,2.14,2.14,0,0,1-1.387.486h-8.021Z" transform="translate(3875)" fill="#00d5ff"/>
</svg>
