<svg xmlns="http://www.w3.org/2000/svg" width="32" height="32" viewBox="0 0 32 32">
  <g id="Group_227" data-name="Group 227" transform="translate(-377 -54.643)">
    <path id="Path_1323" data-name="Path 1323" d="M8,0H24c4.418,0,8,8,8,8V24a8,8,0,0,1-8,8H8a8,8,0,0,1-8-8V8A8,8,0,0,1,8,0Z" transform="translate(377 54.643)" fill="#ccc"/>
    <path id="Path_266" data-name="Path 266" d="M7.477,76.445c-1.642,0-3.284,0-4.927,0A2.4,2.4,0,0,1,0,73.906Q0,69.994,0,66.082a2.365,2.365,0,0,1,2.525-2.54c.5,0,1-.011,1.5,0a.641.641,0,0,1,.71.676c-.007.41-.255.634-.734.642-.5.008-1-.01-1.5.006a1.067,1.067,0,0,0-1.156,1.186q-.008,3.937,0,7.873a1.051,1.051,0,0,0,1.176,1.16q4.951.007,9.9,0A1.051,1.051,0,0,0,13.6,73.931q.01-3.936,0-7.873a1.067,1.067,0,0,0-1.154-1.189c-.5-.016-1,0-1.5-.006-.48-.008-.728-.23-.736-.639s.256-.67.755-.68c.547-.011,1.1-.015,1.642,0a2.32,2.32,0,0,1,2.328,2.342q.033,4.105,0,8.211A2.363,2.363,0,0,1,12.5,76.443c-1.674.01-3.349,0-5.023,0" transform="translate(386.02 3.115)" fill="#323232" stroke="#323232" stroke-width="1"/>
    <path id="Path_267" data-name="Path 267" d="M38.606,2.387c-.668.688-1.339,1.373-2,2.064a.777.777,0,0,1-.723.3.612.612,0,0,1-.494-.411.7.7,0,0,1,.209-.787q1.4-1.4,2.8-2.8c1-1,1.011-1,2.008-.005q1.366,1.364,2.729,2.732c.393.395.438.794.132,1.093s-.7.245-1.093-.152c-.665-.671-1.323-1.349-1.995-2.036a.731.731,0,0,0-.114.574q-.007,4.61,0,9.219a.689.689,0,0,1-.517.767.632.632,0,0,1-.708-.3.983.983,0,0,1-.094-.609q0-4.537,0-9.075v-.51Z" transform="translate(354.097 59.056)" fill="#323232" stroke="#323232" stroke-width="1"/>
  </g>
</svg>
