<svg xmlns="http://www.w3.org/2000/svg" width="49" height="46" viewBox="0 0 49 46">
  <g id="Group_227" data-name="Group 227" transform="translate(-21 -615)">
    <ellipse id="Ellipse_2" data-name="Ellipse 2" cx="24.5" cy="23" rx="24.5" ry="23" transform="translate(21 615)" fill="#fff"/>
    <path id="Path_1276" data-name="Path 1276" d="M11.841,23.141a3.146,3.146,0,0,1-1.583-.442,14.438,14.438,0,0,1-2.575-1.975,53.468,53.468,0,0,1-7.289-8.03A9.7,9.7,0,0,1-1.5,6.655,8.56,8.56,0,0,1,.175,1.776,8.158,8.158,0,0,1,4.337-1.21,6.6,6.6,0,0,1,6.215-1.5h.069A9.26,9.26,0,0,1,11.874.429a9.466,9.466,0,0,1,4.049-1.814,8.836,8.836,0,0,1,1.4-.115A7.4,7.4,0,0,1,23.16,1.344a8.785,8.785,0,0,1,2.012,5.083,9.575,9.575,0,0,1-1.32,5.377,27,27,0,0,1-3.311,4.308l-.008.009A51.49,51.49,0,0,1,15.378,21.3a11.763,11.763,0,0,1-2.033,1.443A3.141,3.141,0,0,1,11.841,23.141ZM6.215,1.622a3.446,3.446,0,0,0-.952.146A5.356,5.356,0,0,0,1.622,6.736a6.563,6.563,0,0,0,1.3,4.135A50.468,50.468,0,0,0,9.8,18.433,11.592,11.592,0,0,0,11.815,20l.027.015.019-.01a8.581,8.581,0,0,0,1.488-1.069,48.544,48.544,0,0,0,4.845-4.876l.008-.009a24.283,24.283,0,0,0,2.949-3.8,5.952,5.952,0,0,0-.4-6.913,4.261,4.261,0,0,0-3.431-1.709,5.709,5.709,0,0,0-.9.075,7.169,7.169,0,0,0-3.143,1.58c-.073.056-.128.1-.182.148A1.746,1.746,0,0,1,10.608,3.4c-.053-.045-.107-.091-.176-.147A6.307,6.307,0,0,0,6.285,1.623H6.215Z" transform="translate(33.92 627.594)" fill="#ccc"/>
  </g>
</svg>
