<svg width="284" height="66" viewBox="0 0 284 66" fill="none" xmlns="http://www.w3.org/2000/svg">
<path d="M0.720703 18.6641C0.720703 16.694 1.09701 14.8457 1.84961 13.1191C2.60221 11.3926 3.62044 9.88737 4.9043 8.60352C6.21029 7.29753 7.72656 6.26823 9.45312 5.51562C11.1797 4.76302 13.028 4.38672 14.998 4.38672H36.8457V13.916H14.998C14.334 13.916 13.7142 14.0378 13.1387 14.2812C12.5632 14.5247 12.054 14.8678 11.6113 15.3105C11.1908 15.7311 10.8587 16.2292 10.6152 16.8047C10.3717 17.3802 10.25 18 10.25 18.6641C10.25 19.3281 10.3717 19.959 10.6152 20.5566C10.8587 21.1322 11.1908 21.6413 11.6113 22.084C12.054 22.5046 12.5632 22.8366 13.1387 23.0801C13.7142 23.3236 14.334 23.4453 14.998 23.4453H24.5273C26.4974 23.4453 28.3457 23.8216 30.0723 24.5742C31.821 25.3047 33.3372 26.3229 34.6211 27.6289C35.9271 28.9128 36.9453 30.429 37.6758 32.1777C38.4284 33.9043 38.8047 35.7526 38.8047 37.7227C38.8047 39.6927 38.4284 41.541 37.6758 43.2676C36.9453 44.9941 35.9271 46.5104 34.6211 47.8164C33.3372 49.1003 31.821 50.1185 30.0723 50.8711C28.3457 51.6237 26.4974 52 24.5273 52H3.37695V42.4707H24.5273C25.1914 42.4707 25.8112 42.349 26.3867 42.1055C26.9622 41.862 27.4603 41.5299 27.8809 41.1094C28.3236 40.6667 28.6667 40.1576 28.9102 39.582C29.1536 39.0065 29.2754 38.3867 29.2754 37.7227C29.2754 37.0586 29.1536 36.4388 28.9102 35.8633C28.6667 35.2878 28.3236 34.7897 27.8809 34.3691C27.4603 33.9264 26.9622 33.5833 26.3867 33.3398C25.8112 33.0964 25.1914 32.9746 24.5273 32.9746H14.998C13.028 32.9746 11.1797 32.5983 9.45312 31.8457C7.72656 31.0931 6.21029 30.0749 4.9043 28.791C3.62044 27.485 2.60221 25.9688 1.84961 24.2422C1.09701 22.4935 0.720703 20.6341 0.720703 18.6641ZM53.1816 52H44.1172V2.29492H53.1816V18C54.2663 17.181 55.3841 16.6055 56.5352 16.2734C57.6862 15.9193 58.8594 15.7422 60.0547 15.7422C62.2461 15.7422 64.3047 16.1628 66.2305 17.0039C68.1562 17.8229 69.8275 18.9629 71.2441 20.4238C72.6829 21.8626 73.8118 23.556 74.6309 25.5039C75.472 27.4297 75.8926 29.4883 75.8926 31.6797V52H66.7617V31.6797H66.8281C66.8281 30.75 66.651 29.8757 66.2969 29.0566C65.9427 28.2155 65.4557 27.485 64.8359 26.8652C64.2161 26.2454 63.4967 25.7585 62.6777 25.4043C61.8587 25.0501 60.9844 24.873 60.0547 24.873C59.1029 24.873 58.2064 25.0501 57.3652 25.4043C56.5241 25.7585 55.7936 26.2454 55.1738 26.8652C54.554 27.485 54.0671 28.2155 53.7129 29.0566C53.3587 29.8757 53.1816 30.75 53.1816 31.6797V52ZM116.732 33.9043C116.732 36.5605 116.257 39.0397 115.305 41.3418C114.353 43.6217 113.058 45.6029 111.42 47.2852C109.782 48.9453 107.856 50.2624 105.643 51.2363C103.451 52.1882 101.094 52.6641 98.5703 52.6641C96.069 52.6641 93.7116 52.1882 91.498 51.2363C89.3066 50.2624 87.3809 48.9453 85.7207 47.2852C84.0827 45.6029 82.7878 43.6217 81.8359 41.3418C80.8841 39.0397 80.4082 36.5605 80.4082 33.9043C80.4082 31.2038 80.8841 28.7025 81.8359 26.4004C82.7878 24.0983 84.0827 22.1172 85.7207 20.457C87.3809 18.7747 89.3066 17.4577 91.498 16.5059C93.7116 15.554 96.069 15.0781 98.5703 15.0781C101.094 15.0781 103.451 15.5319 105.643 16.4395C107.856 17.3249 109.782 18.5977 111.42 20.2578C113.058 21.8958 114.353 23.877 115.305 26.2012C116.257 28.5033 116.732 31.071 116.732 33.9043ZM107.602 33.9043C107.602 32.4434 107.358 31.1263 106.871 29.9531C106.406 28.7578 105.764 27.7396 104.945 26.8984C104.126 26.0352 103.163 25.3822 102.057 24.9395C100.972 24.4746 99.8099 24.2422 98.5703 24.2422C97.3307 24.2422 96.1576 24.4746 95.0508 24.9395C93.9661 25.3822 93.0143 26.0352 92.1953 26.8984C91.3984 27.7396 90.7676 28.7578 90.3027 29.9531C89.8379 31.1263 89.6055 32.4434 89.6055 33.9043C89.6055 35.2767 89.8379 36.5495 90.3027 37.7227C90.7676 38.8958 91.3984 39.9141 92.1953 40.7773C93.0143 41.6406 93.9661 42.3268 95.0508 42.8359C96.1576 43.3229 97.3307 43.5664 98.5703 43.5664C99.8099 43.5664 100.972 43.334 102.057 42.8691C103.163 42.4043 104.126 41.7513 104.945 40.9102C105.764 40.069 106.406 39.0508 106.871 37.8555C107.358 36.6602 107.602 35.3431 107.602 33.9043ZM130.877 65.5469H121.746V16.4395H123.938L127.557 20.7227C128.376 19.9479 129.272 19.2174 130.246 18.5312C131.22 17.8451 132.227 17.2585 133.268 16.7715C134.33 16.2624 135.426 15.8639 136.555 15.5762C137.684 15.2884 138.824 15.1445 139.975 15.1445C142.476 15.1445 144.822 15.5983 147.014 16.5059C149.227 17.3913 151.153 18.653 152.791 20.291C154.451 21.929 155.757 23.9102 156.709 26.2344C157.661 28.5365 158.137 31.0931 158.137 33.9043C158.137 36.8262 157.661 39.4603 156.709 41.8066C155.757 44.1309 154.451 46.112 152.791 47.75C151.153 49.3659 149.227 50.6055 147.014 51.4688C144.822 52.332 142.476 52.7637 139.975 52.7637C139.178 52.7637 138.381 52.6751 137.584 52.498C136.809 52.321 136.035 52.0885 135.26 51.8008C134.507 51.4909 133.755 51.1478 133.002 50.7715C132.271 50.3952 131.563 50.0078 130.877 49.6094V65.5469ZM149.039 33.9043C149.039 32.3991 148.796 31.0488 148.309 29.8535C147.844 28.6582 147.202 27.651 146.383 26.832C145.564 25.9909 144.601 25.349 143.494 24.9062C142.387 24.4635 141.214 24.2422 139.975 24.2422C138.735 24.2422 137.562 24.4635 136.455 24.9062C135.37 25.349 134.419 25.9909 133.6 26.832C132.781 27.651 132.128 28.6582 131.641 29.8535C131.176 31.0488 130.943 32.3991 130.943 33.9043C130.943 35.3431 131.176 36.6602 131.641 37.8555C132.128 39.0508 132.781 40.069 133.6 40.9102C134.419 41.7513 135.37 42.4043 136.455 42.8691C137.562 43.334 138.735 43.5664 139.975 43.5664C141.214 43.5664 142.387 43.334 143.494 42.8691C144.601 42.4043 145.564 41.7513 146.383 40.9102C147.202 40.069 147.844 39.0508 148.309 37.8555C148.796 36.6602 149.039 35.3431 149.039 33.9043ZM191.373 52H182.242V2.29492H191.373V52ZM209.004 6.77734C209.004 7.61849 208.838 8.4043 208.506 9.13477C208.196 9.86523 207.764 10.5072 207.211 11.0605C206.658 11.5918 206.005 12.0234 205.252 12.3555C204.521 12.6654 203.736 12.8203 202.895 12.8203C202.053 12.8203 201.257 12.6654 200.504 12.3555C199.773 12.0234 199.132 11.5918 198.578 11.0605C198.047 10.5072 197.615 9.86523 197.283 9.13477C196.973 8.4043 196.818 7.61849 196.818 6.77734C196.818 5.95833 196.973 5.18359 197.283 4.45312C197.615 3.70052 198.047 3.05859 198.578 2.52734C199.132 1.97396 199.773 1.54232 200.504 1.23242C201.257 0.900391 202.053 0.734375 202.895 0.734375C203.736 0.734375 204.521 0.900391 205.252 1.23242C206.005 1.54232 206.658 1.97396 207.211 2.52734C207.764 3.05859 208.196 3.70052 208.506 4.45312C208.838 5.18359 209.004 5.95833 209.004 6.77734ZM207.443 52H198.312V16.4395H207.443V52ZM223.447 52H214.383V16.4395H216.574L219.562 19.8926C221.023 18.5645 222.673 17.5462 224.51 16.8379C226.369 16.1074 228.306 15.7422 230.32 15.7422C232.49 15.7422 234.537 16.1628 236.463 17.0039C238.389 17.8229 240.071 18.9629 241.51 20.4238C242.949 21.8626 244.077 23.556 244.896 25.5039C245.738 27.4297 246.158 29.4883 246.158 31.6797V52H237.094V31.6797C237.094 30.75 236.917 29.8757 236.562 29.0566C236.208 28.2155 235.721 27.485 235.102 26.8652C234.482 26.2454 233.762 25.7585 232.943 25.4043C232.124 25.0501 231.25 24.873 230.32 24.873C229.368 24.873 228.472 25.0501 227.631 25.4043C226.79 25.7585 226.059 26.2454 225.439 26.8652C224.82 27.485 224.333 28.2155 223.979 29.0566C223.624 29.8757 223.447 30.75 223.447 31.6797V52ZM266.777 43.3008C267.132 43.4115 267.486 43.4889 267.84 43.5332C268.194 43.5553 268.548 43.5664 268.902 43.5664C269.788 43.5664 270.64 43.4447 271.459 43.2012C272.278 42.9577 273.042 42.6146 273.75 42.1719C274.48 41.707 275.122 41.1536 275.676 40.5117C276.251 39.8477 276.716 39.1172 277.07 38.3203L283.711 44.9941C282.87 46.1895 281.896 47.263 280.789 48.2148C279.704 49.1667 278.52 49.9746 277.236 50.6387C275.975 51.3027 274.635 51.8008 273.219 52.1328C271.824 52.487 270.385 52.6641 268.902 52.6641C266.401 52.6641 264.044 52.1992 261.83 51.2695C259.639 50.3398 257.713 49.0449 256.053 47.3848C254.415 45.7246 253.12 43.7546 252.168 41.4746C251.216 39.1725 250.74 36.6491 250.74 33.9043C250.74 31.0931 251.216 28.5254 252.168 26.2012C253.12 23.877 254.415 21.8958 256.053 20.2578C257.713 18.6198 259.639 17.347 261.83 16.4395C264.044 15.5319 266.401 15.0781 268.902 15.0781C270.385 15.0781 271.835 15.2552 273.252 15.6094C274.669 15.9635 276.008 16.4727 277.27 17.1367C278.553 17.8008 279.749 18.6198 280.855 19.5938C281.962 20.5456 282.936 21.6191 283.777 22.8145L266.777 43.3008ZM271.426 24.6074C271.005 24.4525 270.585 24.3529 270.164 24.3086C269.766 24.2643 269.345 24.2422 268.902 24.2422C267.663 24.2422 266.49 24.4746 265.383 24.9395C264.298 25.3822 263.346 26.0241 262.527 26.8652C261.73 27.7064 261.1 28.7246 260.635 29.9199C260.17 31.0931 259.938 32.4212 259.938 33.9043C259.938 34.2363 259.949 34.6126 259.971 35.0332C260.015 35.4538 260.07 35.8854 260.137 36.3281C260.225 36.7487 260.325 37.1582 260.436 37.5566C260.546 37.9551 260.69 38.3092 260.867 38.6191L271.426 24.6074Z" fill="white"/>
</svg>
