<svg xmlns="http://www.w3.org/2000/svg" width="22.7" height="22.702" viewBox="0 0 22.7 22.702">
  <path id="Union_2" data-name="Union 2" d="M-3872.407,22.69a2.508,2.508,0,0,1-2.551-2.563c-.008-.6-.006-1.2,0-1.782q0-.4,0-.8c0-.251,0-.5,0-.752,0-.588,0-1.2,0-1.8a2.513,2.513,0,0,1,2.571-2.615c.831-.009,1.692-.014,2.563-.014.85,0,1.738,0,2.637.014a2.521,2.521,0,0,1,2.595,2.637c0,1.861,0,3.514,0,5.053a2.531,2.531,0,0,1-2.581,2.618c-.9.007-1.791.011-2.642.011C-3870.7,22.7-3871.569,22.7-3872.407,22.69Zm.139-7.74a1.046,1.046,0,0,0-.111,0,1.019,1.019,0,0,0,0,.11c0,.578,0,1.166,0,1.735q0,.368,0,.735t0,.741c0,.567,0,1.153,0,1.729a1.089,1.089,0,0,0,0,.114.99.99,0,0,0,.107,0q2.489,0,4.977,0a1.017,1.017,0,0,0,.114-.006.9.9,0,0,0,.006-.107c0-1.59,0-3.253,0-4.944a1,1,0,0,0-.006-.112c-.025,0-.061,0-.11,0l-2.489,0ZM-3856.7,22.7h-2.354l-.972,0a2.563,2.563,0,0,1-2.667-2.648c-.011-1.7-.011-3.393,0-5.024a2.549,2.549,0,0,1,2.635-2.641c.866-.007,1.734-.01,2.579-.01s1.713,0,2.549.01a2.543,2.543,0,0,1,2.625,2.647c.007,1.722.007,3.412,0,5.022a2.555,2.555,0,0,1-2.664,2.644l-.865,0Zm-3.282-7.742a.873.873,0,0,0-.126.008.856.856,0,0,0-.009.139c0,1.617,0,3.259,0,4.877a.865.865,0,0,0,.009.139,1.034,1.034,0,0,0,.157.01h4.944a.861.861,0,0,0,.125-.008.856.856,0,0,0,.006-.106c0-1.6,0-3.262,0-4.945a.918.918,0,0,0-.006-.11,1.032,1.032,0,0,0-.121-.007h-1.684C-3857.808,14.949-3858.919,14.951-3859.983,14.953Zm-12.382-4.638a2.62,2.62,0,0,1-1.9-.756A2.687,2.687,0,0,1-3875,7.64c0-1.592,0-3.258,0-4.951A2.556,2.556,0,0,1-3872.3,0h2.545l1.533,0c.376,0,.688,0,.978,0a2.539,2.539,0,0,1,2.635,2.6c.019,1.631.02,3.3,0,5.1a2.538,2.538,0,0,1-2.627,2.612c-.834.007-1.692.011-2.548.011S-3871.5,10.322-3872.365,10.315Zm.062-7.742a.772.772,0,0,0-.116.007.765.765,0,0,0-.007.115c0,1.516,0,3.123,0,4.91a1.043,1.043,0,0,0,.007.134,1.147,1.147,0,0,0,.132.008c.577,0,1.154,0,1.73,0h2.218c.342,0,.685,0,1.027,0a.781.781,0,0,0,.12-.008.74.74,0,0,0,.007-.114c0-1.48,0-3.04,0-4.911a.944.944,0,0,0-.008-.132.931.931,0,0,0-.131-.008l-2.489,0Zm14.813,7.742a5.154,5.154,0,0,1-5.118-5.138,5.133,5.133,0,0,1,1.509-3.657,5.115,5.115,0,0,1,3.645-1.513,5.119,5.119,0,0,1,3.626,1.505,5.1,5.1,0,0,1,1.525,3.61,5.128,5.128,0,0,1-1.513,3.662,5.13,5.13,0,0,1-3.655,1.53Zm-2.551-5.162a2.534,2.534,0,0,0,.752,1.817,2.552,2.552,0,0,0,1.823.775h.017a2.594,2.594,0,0,0,2.573-2.586,2.618,2.618,0,0,0-2.549-2.585h-.021A2.61,2.61,0,0,0-3860.041,5.153Z" transform="translate(3875)" fill="#ccc"/>
</svg>
