<svg xmlns="http://www.w3.org/2000/svg" xmlns:xlink="http://www.w3.org/1999/xlink" width="30.813" height="51.943" viewBox="0 0 30.813 51.943">
  <defs>
    <clipPath id="clip-path">
      <rect id="Rectangle_104" data-name="Rectangle 104" width="30.813" height="51.943" fill="#ccc"/>
    </clipPath>
  </defs>
  <g id="Group_141" data-name="Group 141" transform="translate(0)">
    <g id="Group_140" data-name="Group 140" transform="translate(0)" clip-path="url(#clip-path)">
      <path id="Path_1292" data-name="Path 1292" d="M99.237,73.848c-1.648,0-3.3-.025-4.944.014-.537.013-.7-.2-.76-.672q-.893-6.933-1.809-13.863c-.506-3.791-1.052-7.577-1.557-11.369-.573-4.3-1.079-8.607-1.7-12.9-.3-2.056.324-4.009.427-6.017.037-.725.183-1.445.241-2.17.038-.478.177-.72.729-.711q2.877.046,5.754,0c.494-.008.63.2.739.624.544,2.109,1.153,4.2,1.666,6.318a1.268,1.268,0,0,0,1.518,1.157c.725-.056,1.458,0,2.187-.013.372-.006.492.147.55.517.627,3.98.686,8.005.954,12.013.331,4.955.629,9.913.931,14.87.19,3.125.362,6.252.544,9.377.041.7.067,1.4.149,2.1.065.552-.085.752-.68.737-1.647-.04-3.3-.014-4.944-.014" transform="translate(-74.062 -21.921)" fill="#ccc"/>
      <path id="Path_1293" data-name="Path 1293" d="M5.635,73.817c-1.674,0-3.349-.021-5.023.012-.519.01-.639-.161-.607-.647Q.4,67.166.758,61.147c.185-3.043.36-6.087.54-9.131.275-4.632.533-9.265.838-13.9.076-1.152.323-2.292.453-3.441.047-.417.274-.464.6-.462.756.005,1.514-.035,2.268.011a1.174,1.174,0,0,0,1.36-1.049c.526-2.085,1.126-4.151,1.624-6.242.16-.671.453-.843,1.1-.809,1.023.054,2.052.014,3.078.015,1.136,0,1.132,0,.985,1.114-.212,1.6-.348,3.217-.641,4.8a16.444,16.444,0,0,0,.225,5.064c.322,2.646.583,5.309,1.1,7.918.682,3.416-.195,6.7-.564,10.021-.339,3.049-.812,6.084-1.217,9.126q-.6,4.483-1.173,8.969c-.06.472-.22.686-.759.673-1.646-.041-3.294-.015-4.941-.015" transform="translate(0 -21.89)" fill="#ccc"/>
      <path id="Path_1294" data-name="Path 1294" d="M19.519,32.732a5.422,5.422,0,0,0-.553,0c-.644.074-.82-.107-.69-.812.307-1.666.529-3.351.7-5.037.063-.626.294-.762.854-.731.726.041,1.457.015,2.186.01.315,0,.415.075.316.43C21.8,28.485,21.3,30.382,20.8,32.279c-.224.845-.917.256-1.284.453" transform="translate(-15.279 -21.912)" fill="#ccc"/>
      <path id="Path_1295" data-name="Path 1295" d="M147.984,26.2c1.727,0,1.706,0,1.913,1.72.171,1.415.385,2.825.614,4.232.077.473-.053.6-.525.624-1.894.075-1.888.088-2.369-1.749-.374-1.43-.741-2.863-1.164-4.278-.138-.461-.052-.578.4-.552.377.022.756,0,1.134,0" transform="translate(-122.661 -21.948)" fill="#ccc"/>
      <path id="Path_1296" data-name="Path 1296" d="M79.673,3.032c-.782,0-1.565-.013-2.347.005-.379.009-.5-.129-.531-.511C76.625.29,76.615.291,78.822.291c1.025,0,2.051.025,3.075-.011.515-.018.694.118.7.666.017,2.087.038,2.087-2.032,2.087h-.89" transform="translate(-64.29 -0.233)" fill="#ccc"/>
      <path id="Path_1297" data-name="Path 1297" d="M27.087,3.066c-.6-.076-1.591.272-1.719-.159A6.177,6.177,0,0,1,25.591.545c.037-.276.27-.214.443-.216.834-.007,1.669.011,2.5-.009.369-.009.475.154.444.483-.01.107,0,.215,0,.323.009,1.942.009,1.942-1.892,1.942" transform="translate(-21.198 -0.267)" fill="#ccc"/>
      <path id="Path_1298" data-name="Path 1298" d="M143.784,2.882c-1.87,0-1.829,0-1.886-1.887-.022-.736.2-.944.895-.866a5.658,5.658,0,0,0,1.53,0c.815-.134,1.053.253,1.15.969.243,1.79.262,1.787-1.69,1.787" transform="translate(-118.894 -0.083)" fill="#ccc"/>
      <path id="Path_1299" data-name="Path 1299" d="M58.57,1.451c0,.107,0,.215,0,.322,0,.966-.56,1.338-1.509,1.015-.42-.143-.28-.5-.245-.745C56.91,1.388,56.45.6,57.061.108c.26-.211.83-.047,1.259-.037.277.006.244.233.247.414.006.322,0,.644,0,.967" transform="translate(-47.54 0)" fill="#ccc"/>
      <path id="Path_1300" data-name="Path 1300" d="M123.746,1.668V1.91c0,1-.609,1.418-1.547,1.078-.257-.093-.217-.275-.219-.45-.008-.617.006-1.235-.007-1.853-.006-.3.085-.456.409-.433a3.209,3.209,0,0,0,.644,0c.544-.072.808.108.725.695a5.208,5.208,0,0,0-.006.724" transform="translate(-102.2 -0.197)" fill="#ccc"/>
    </g>
  </g>
</svg>
