<svg xmlns="http://www.w3.org/2000/svg" xmlns:xlink="http://www.w3.org/1999/xlink" width="55.589" height="55.539" viewBox="0 0 55.589 55.539">
  <defs>
    <clipPath id="clip-path">
      <rect id="Rectangle_105" data-name="Rectangle 105" width="55.589" height="55.539" fill="#ccc"/>
    </clipPath>
  </defs>
  <g id="Group_144" data-name="Group 144" clip-path="url(#clip-path)">
    <path id="Path_1301" data-name="Path 1301" d="M75.048,32.39v6c0,9.308-.016,18.616.015,27.924a12.948,12.948,0,0,1-.781,4.94c-.667,1.683-1.182,3.429-1.724,5.159-.149.473-.351.612-.848.548A13.15,13.15,0,0,1,64.2,73.492a6.038,6.038,0,0,1-1.987-3.421c-.543-2.881-1.275-5.728-1.951-8.583a4.621,4.621,0,0,1-.116-1.078q0-15.254-.02-30.508a1.092,1.092,0,0,1,.9-1.233c1.592-.542,3.164-1.145,4.723-1.777.619-.251.913-.166,1.187.482.964,2.28,1.99,4.533,3,6.795.582,1.305,1.115,1.417,2.246.5.893-.722,1.8-1.429,2.871-2.282m-2.931,4.9c-.739-.189-1.146,0-1.065.912.055.622-.062,1.186.891,1.069.618-.076,1.268.114,1.143-.914-.077-.632.11-1.349-.968-1.066m-.03,9.935c-.874-.233-1.054.174-1.041.978.012.721.116,1.057.956,1.018.728-.034,1.156-.056,1.093-.985-.05-.735-.066-1.271-1.008-1.011m0,9.941c-.874-.233-1.054.174-1.041.978.012.721.116,1.057.956,1.018.728-.034,1.156-.056,1.093-.985-.05-.735-.066-1.271-1.008-1.011m.952,10.9c.253-.922-.243-1-1-1.016s-1,.19-1,.981c.008.774.128,1.108,1.01,1.07.778-.033,1.229-.141.987-1.035" transform="translate(-48.169 -21.44)" fill="#ccc"/>
    <path id="Path_1302" data-name="Path 1302" d="M145.213,32.367c1.1.878,2.028,1.611,2.948,2.352,1.032.831,1.591.716,2.125-.477,1.026-2.29,2.063-4.576,3.043-6.886.274-.646.568-.736,1.19-.484,1.591.643,3.191,1.273,4.822,1.8.7.226.791.589.789,1.218q-.026,12.824-.011,25.648,0,4.225,0,8.45A12.934,12.934,0,0,1,148.563,76.95c-.485.058-.7-.051-.856-.536-.753-2.356-1.542-4.7-2.334-7.044a3.268,3.268,0,0,1-.163-1.069q0-17.6,0-35.191v-.743M153.2,41.22c-1.226,0-2.452.015-3.678,0-.91-.015-1.34.391-1.333,1.312q.022,3.181,0,6.362a1.3,1.3,0,0,0,.836,1.317c1.162.554,2.31,1.139,3.452,1.734a1.421,1.421,0,0,0,1.411-.011c1.145-.59,2.294-1.172,3.454-1.732a1.318,1.318,0,0,0,.808-1.339c-.019-2.12-.013-4.242,0-6.362,0-.862-.395-1.284-1.264-1.278-1.226.01-2.452,0-3.678,0" transform="translate(-116.34 -21.425)" fill="#ccc"/>
    <path id="Path_1303" data-name="Path 1303" d="M9.937,42.868V66.785l-.125.027c-.538-1.716-1.113-3.421-1.6-5.152-.186-.666-.393-.889-1.081-.605-.57.235-1.175.2-.854,1.193C7.532,66.1,8.739,69.975,9.857,73.871c.663,2.311,1.122,4.679,1.7,7.016a.85.85,0,0,1-.5,1.1c-1.014.556-1.968,1.221-2.988,1.763-.942.5-.15.913.021,1.333s.376.833,1,.4c.813-.564,1.707-1.01,2.539-1.549.42-.271.6-.119.7.273.157.607.293,1.219.432,1.83a.652.652,0,0,1-.341.748c-1.189.78-2.382,1.554-3.545,2.371-.671.471-.7-.142-.867-.469C5.864,84.446,3.826,80.147,1.578,75.96a12.762,12.762,0,0,1-1.57-6.7c.132-3.937.049-7.881.024-11.822a4.371,4.371,0,0,1,.5-2.08c1.572-3.09,3.133-6.185,4.645-9.3a3.206,3.206,0,0,1,1.7-1.68c1.02-.438,2-.974,3.06-1.5" transform="translate(0 -34.345)" fill="#ccc"/>
    <path id="Path_1304" data-name="Path 1304" d="M230.187,42.165c1.58.68,3.029,1.294,4.467,1.929a1.168,1.168,0,0,1,.679,1.024c.466,4.335.928,8.671,1.41,13,.492,4.431,1.014,8.859,1.507,13.29.373,3.348.738,6.7,1.066,10.051.066.674.576,1.507.071,1.99-.436.417-1.285.4-1.95.578-.127.034-.245.1-.372.135-1.084.278-1.325.967-.728,1.931.2.325.406.141.587.1q1.109-.242,2.2-.55c.5-.141.724-.007.794.53.18,1.365.161,1.426-1.175,1.825-1.041.311-2.087.606-3.127.924-.514.157-.759.046-.879-.537q-2.045-9.979-4.15-19.945a20.788,20.788,0,0,1-.413-4.421c.019-6.886.008-13.773.008-20.659Z" transform="translate(-184.413 -33.782)" fill="#ccc"/>
    <path id="Path_1305" data-name="Path 1305" d="M102.147,5.113c1.743,2.5,3.381,4.856,5.042,7.2.251.354.221.548-.115.8-.789.6-1.568,1.217-2.321,1.863-.421.361-.568.218-.759-.223q-1.356-3.134-2.769-6.244a1.168,1.168,0,0,1-.092-.952c.3-.763.627-1.519,1.013-2.448" transform="translate(-80.973 -4.096)" fill="#ccc"/>
    <path id="Path_1306" data-name="Path 1306" d="M153.3,5.206c.375.9.712,1.686,1.025,2.479a1.075,1.075,0,0,1-.085.86c-.934,2.075-1.866,4.151-2.766,6.241-.212.493-.408.651-.822.225-.046-.047-.1-.087-.149-.132-.808-.718-2.248-1.2-2.322-2.124-.066-.821,1.035-1.743,1.639-2.608,1.129-1.618,2.272-3.228,3.48-4.942" transform="translate(-118.717 -4.171)" fill="#ccc"/>
    <path id="Path_1307" data-name="Path 1307" d="M125.121,0c-.636.911-1.214,1.708-1.757,2.529a.865.865,0,0,1-.845.37c-1.585-.009-3.17-.015-4.754,0a.946.946,0,0,1-.909-.444c-.524-.8-1.082-1.569-1.7-2.458Z" transform="translate(-92.26)" fill="#ccc"/>
    <path id="Path_1308" data-name="Path 1308" d="M135.873,24.57c-1.455,2.476-1.455,2.476-2.913.067a15.969,15.969,0,0,1,2.913-.067" transform="translate(-106.524 -19.658)" fill="#ccc"/>
    <path id="Path_1309" data-name="Path 1309" d="M173.059,109.145c.782.1,2.041-.425,2.584.205.464.541.039,1.777.18,2.679a2.825,2.825,0,0,1-2.2,3.6,2.5,2.5,0,0,1-1.649-.032,2.75,2.75,0,0,1-2.155-3.519,10.566,10.566,0,0,0,.011-2.278c-.029-.538.18-.684.685-.662.792.034,1.587.009,2.54.009" transform="translate(-135.999 -87.355)" fill="#ccc"/>
  </g>
</svg>
