<svg xmlns="http://www.w3.org/2000/svg" xmlns:xlink="http://www.w3.org/1999/xlink" width="28.627" height="18.134" viewBox="0 0 28.627 18.134">
  <defs>
    <clipPath id="clip-path">
      <rect id="Rectangle_213" data-name="Rectangle 213" width="28.627" height="18.134" fill="none"/>
    </clipPath>
  </defs>
  <g id="Group_315" data-name="Group 315" clip-path="url(#clip-path)">
    <path id="Path_1368" data-name="Path 1368" d="M.117,10.539q0-3.966-.008-7.932A3.4,3.4,0,0,1,.157,2.02,2.311,2.311,0,0,1,2.449.19c4-.012,7.992,0,11.987,0q.005,1.3.01,2.6t0,2.585q0,1.287,0,2.575t-.03,2.556c-.059,0-.118.013-.177.014L.117,10.539M11.533,8.382l.873.416a1.4,1.4,0,0,0-.077-.628.426.426,0,0,1,.173-.5c.165-.13.308-.284.5-.459a2.5,2.5,0,0,0-.436-.064.751.751,0,0,1-.82-.578c-.033-.09-.046-.234-.223-.225a5.512,5.512,0,0,0-.278.5.444.444,0,0,1-.417.28,2.425,2.425,0,0,0-.729.138c.192.148.344.274.507.386a.448.448,0,0,1,.19.542,1.5,1.5,0,0,0-.077.6l.82-.413m-4.285,0,.873.416a1.4,1.4,0,0,0-.077-.628.426.426,0,0,1,.173-.5c.165-.13.308-.284.5-.459a2.509,2.509,0,0,0-.436-.064.751.751,0,0,1-.82-.578c-.033-.09-.046-.234-.223-.225a5.512,5.512,0,0,0-.278.5.444.444,0,0,1-.417.28,2.425,2.425,0,0,0-.729.138c.192.148.344.274.507.386a.448.448,0,0,1,.19.542,1.5,1.5,0,0,0-.077.6l.82-.413m-4.3-2.034a5.521,5.521,0,0,0-.278.5.428.428,0,0,1-.417.278c-.213.012-.424.058-.636.089L1.55,7.3c.16.117.316.238.48.349a.445.445,0,0,1,.191.541,1.49,1.49,0,0,0-.077.6l.819-.412.873.416a1.4,1.4,0,0,0-.077-.628.426.426,0,0,1,.173-.5c.165-.13.308-.284.5-.459a2.5,2.5,0,0,0-.436-.064.751.751,0,0,1-.82-.578c-.033-.09-.046-.234-.223-.225m8.569-4.3a5.511,5.511,0,0,0-.278.5.444.444,0,0,1-.417.28,2.425,2.425,0,0,0-.729.138c.192.148.344.274.507.386a.448.448,0,0,1,.19.541,1.5,1.5,0,0,0-.077.6l.82-.413.873.416a1.4,1.4,0,0,0-.077-.628.426.426,0,0,1,.173-.5c.165-.13.308-.284.468-.434a.684.684,0,0,0-.409-.086.761.761,0,0,1-.82-.581c-.033-.09-.046-.234-.223-.225M7.248,4.079l.873.416a1.4,1.4,0,0,0-.077-.628.426.426,0,0,1,.173-.5c.165-.13.308-.284.468-.434a.684.684,0,0,0-.409-.086.761.761,0,0,1-.82-.581c-.033-.09-.046-.234-.223-.225a5.511,5.511,0,0,0-.278.5.443.443,0,0,1-.417.28,2.444,2.444,0,0,0-.743.143c.2.148.356.27.521.381a.446.446,0,0,1,.19.541,1.5,1.5,0,0,0-.077.6l.82-.413m-4.285,0,.873.416a1.4,1.4,0,0,0-.077-.628.426.426,0,0,1,.173-.5c.165-.13.308-.284.468-.434a.684.684,0,0,0-.409-.086.761.761,0,0,1-.82-.581c-.033-.09-.046-.234-.223-.225a5.511,5.511,0,0,0-.278.5.443.443,0,0,1-.417.28,2.439,2.439,0,0,0-.744.144c.2.148.357.27.521.381a.446.446,0,0,1,.19.541,1.5,1.5,0,0,0-.077.6l.82-.413" transform="translate(-0.102 -0.175)" fill="#3577cb"/>
    <path id="Path_1369" data-name="Path 1369" d="M29.195,241.575q0,.646,0,1.292H2.322c-.078,0-.156.014-.234.022l-1.442.006,0,0q0-1.3,0-2.608l.005,0,1.446.008a.942.942,0,0,0,.063.474,1.459,1.459,0,0,0,1.393.794q12.585,0,25.17,0c.159,0,.317.005.476.008" transform="translate(-0.604 -227.359)" fill="#f4f4f4"/>
    <path id="Path_1370" data-name="Path 1370" d="M2.178,195.5l-1.446-.008c0-.116.012-.233.012-.349,0-.645.007-1.29,0-1.936,0-.2.059-.276.285-.265.306.014.614,0,.922,0,.116,0,.2.01.231.146a1.343,1.343,0,0,0,1.5,1.092H28.841c.413,0,.4,0,.416-.384a2.354,2.354,0,0,1,.044-.8c.018.826.025,1.652-.012,2.478-.039,0-.079,0-.118,0H2.563c-.128,0-.257.009-.385.014" transform="translate(-0.688 -182.559)" fill="#f60202"/>
    <path id="Path_1371" data-name="Path 1371" d="M.723,288.586l1.442-.006a1.322,1.322,0,0,0,.041.372,1.391,1.391,0,0,0,1.4.888H28.639c.149,0,.3.006.446.01a2.384,2.384,0,0,1-2.152,1.33c-.069.005-.139,0-.208,0H3.254a2.445,2.445,0,0,1-2.421-1.458.827.827,0,0,1-.09-.443q-.01-.348-.02-.7" transform="translate(-0.68 -273.05)" fill="#f60202"/>
    <path id="Path_1372" data-name="Path 1372" d="M28.613,192.093a2.356,2.356,0,0,0-.044.8c-.012.384,0,.384-.416.384H2.994a1.343,1.343,0,0,1-1.5-1.092c-.032-.137-.115-.147-.231-.146-.307,0-.615.011-.922,0-.227-.011-.288.07-.285.265.011.645,0,1.29,0,1.935,0,.116-.008.233-.012.349l-.005,0a9.982,9.982,0,0,1-.029-1.362c-.009-.4,0-.8.005-1.205l14.123-.019c.059,0,.118-.009.177-.014.039,0,.079.01.118.01l14.158,0,.021.106" transform="translate(0 -181.648)" fill="#f60202"/>
    <path id="Path_1373" data-name="Path 1373" d="M25,240.158c.128,0,.257-.014.385-.014H52c.039,0,.079,0,.118,0a9.934,9.934,0,0,1-.009,1.294c-.159,0-.317-.008-.476-.008q-12.585,0-25.17,0a1.459,1.459,0,0,1-1.393-.794.942.942,0,0,1-.063-.474" transform="translate(-23.514 -227.216)" fill="#f4f4f4"/>
    <path id="Path_1374" data-name="Path 1374" d="M51.86,289.461c-.149,0-.3-.01-.446-.01H26.38a1.391,1.391,0,0,1-1.4-.888,1.32,1.32,0,0,1-.041-.372c.078-.008.156-.022.234-.022H52.047a2.065,2.065,0,0,1-.188,1.292" transform="translate(-23.455 -272.66)" fill="#f60202"/>
    <path id="Path_1375" data-name="Path 1375" d="M240.791,2.615q-.005-1.3-.01-2.6c1.308,0,2.616-.01,3.924-.011q3.925,0,7.85,0a.745.745,0,0,1,.433.051l-.119,0H242.546c-.345,0-.386.051-.29.345a1.319,1.319,0,0,0,1.327.893h11.245a2.2,2.2,0,0,1,.224,1.329l-12.72,0a1.146,1.146,0,0,0-.118.012l-1.423-.019" transform="translate(-226.447 0.001)" fill="#f60202"/>
    <path id="Path_1376" data-name="Path 1376" d="M254.737,147.042l-14.158,0c-.039,0-.079-.006-.118-.01q.015-1.278.03-2.556l1.428,0a1.1,1.1,0,0,0,.4.915,1.83,1.83,0,0,0,1.366.4q5.518.014,11.037.008.007.62.014,1.24" transform="translate(-226.146 -136.704)" fill="#f4f4f4"/>
    <path id="Path_1377" data-name="Path 1377" d="M242.386,99.147l-1.428,0q0-1.287,0-2.575l1.421,0a1.118,1.118,0,0,0,.081.5,1.637,1.637,0,0,0,1.6.819h10.817a.685.685,0,0,0,.347-.05,10.917,10.917,0,0,1-.011,1.295l-12.443.005c-.128,0-.256.009-.385.014" transform="translate(-226.613 -91.369)" fill="#f60202"/>
    <path id="Path_1378" data-name="Path 1378" d="M242.378,51.19l-1.421,0q0-1.292,0-2.585l1.423.019a1.11,1.11,0,0,0,.4.888,1.8,1.8,0,0,0,1.331.407q5.539.008,11.077.005.007.622.014,1.245H242.643c-.088,0-.177.012-.265.018" transform="translate(-226.612 -45.993)" fill="#f4f4f4"/>
    <path id="Path_1379" data-name="Path 1379" d="M264.83,96.243c.088-.006.177-.018.265-.018h12.561a8.715,8.715,0,0,1,.02,1.285.684.684,0,0,1-.347.05H266.511a1.637,1.637,0,0,1-1.6-.819,1.119,1.119,0,0,1-.081-.5" transform="translate(-249.064 -91.046)" fill="#f60202"/>
    <path id="Path_1380" data-name="Path 1380" d="M264.877,144.193c.128,0,.256-.014.385-.014l12.443-.005a7.591,7.591,0,0,1-.022,1.34q-5.518,0-11.037-.008a1.83,1.83,0,0,1-1.366-.4,1.1,1.1,0,0,1-.4-.915" transform="translate(-249.105 -136.415)" fill="#f4f4f4"/>
    <path id="Path_1381" data-name="Path 1381" d="M277.652,50.05q-5.539,0-11.077-.005a1.8,1.8,0,0,1-1.331-.407,1.11,1.11,0,0,1-.4-.888,1.147,1.147,0,0,1,.118-.012l12.72,0a8.172,8.172,0,0,1-.028,1.309" transform="translate(-249.075 -46.115)" fill="#f4f4f4"/>
    <path id="Path_1382" data-name="Path 1382" d="M277.42,2.322H266.174a1.319,1.319,0,0,1-1.327-.893c-.1-.294-.054-.345.29-.345l10.323,0,.119,0a2.208,2.208,0,0,1,1.84,1.239" transform="translate(-249.038 -1.025)" fill="#f60202"/>
    <path id="Path_1383" data-name="Path 1383" d="M.043,288.7q.01.348.02.7a1.216,1.216,0,0,1-.024-.693l0,0" transform="translate(0 -273.159)" fill="#d24941"/>
    <path id="Path_1384" data-name="Path 1384" d="M47.806,34.739c.176-.009.19.135.222.225a.761.761,0,0,0,.82.581.684.684,0,0,1,.409.086c-.16.15-.3.3-.468.434a.426.426,0,0,0-.173.5,1.394,1.394,0,0,1,.077.628l-.873-.416-.015-2.034" transform="translate(-44.96 -32.869)" fill="#f4f4f4"/>
    <path id="Path_1385" data-name="Path 1385" d="M119.779,34.739c.176-.009.19.135.223.225a.761.761,0,0,0,.82.581.684.684,0,0,1,.409.086c-.16.15-.3.3-.468.434a.426.426,0,0,0-.173.5,1.4,1.4,0,0,1,.077.628l-.873-.416-.015-2.034" transform="translate(-112.648 -32.869)" fill="#f4f4f4"/>
    <path id="Path_1386" data-name="Path 1386" d="M191.752,34.739c.176-.009.19.135.223.225a.761.761,0,0,0,.82.581.684.684,0,0,1,.409.086c-.16.15-.3.3-.468.434a.426.426,0,0,0-.173.5,1.4,1.4,0,0,1,.077.628l-.873-.416q-.008-1.017-.015-2.034" transform="translate(-180.337 -32.869)" fill="#f4f4f4"/>
    <path id="Path_1387" data-name="Path 1387" d="M47.806,114.709c.176-.009.19.135.222.225a.751.751,0,0,0,.82.578,2.512,2.512,0,0,1,.436.064c-.187.175-.33.329-.5.459a.426.426,0,0,0-.173.5,1.394,1.394,0,0,1,.077.628l-.873-.416-.015-2.034" transform="translate(-44.96 -108.535)" fill="#f4f4f4"/>
    <path id="Path_1388" data-name="Path 1388" d="M119.779,114.709c.176-.009.19.135.223.225a.751.751,0,0,0,.82.578,2.51,2.51,0,0,1,.436.064c-.187.175-.33.329-.5.459a.426.426,0,0,0-.173.5,1.4,1.4,0,0,1,.077.628l-.873-.416-.015-2.034" transform="translate(-112.648 -108.535)" fill="#f4f4f4"/>
    <path id="Path_1389" data-name="Path 1389" d="M191.752,114.709c.176-.009.19.135.223.225a.751.751,0,0,0,.82.578,2.51,2.51,0,0,1,.436.064c-.187.175-.33.329-.5.459a.426.426,0,0,0-.173.5,1.4,1.4,0,0,1,.077.628l-.873-.416q-.008-1.017-.015-2.034" transform="translate(-180.337 -108.535)" fill="#f4f4f4"/>
    <path id="Path_1390" data-name="Path 1390" d="M25.075,34.746l.015,2.034-.82.413a1.5,1.5,0,0,1,.077-.6.446.446,0,0,0-.19-.541c-.165-.111-.32-.233-.521-.381a2.439,2.439,0,0,1,.744-.144.444.444,0,0,0,.417-.28,5.5,5.5,0,0,1,.278-.5" transform="translate(-22.229 -32.876)" fill="#f4f4f4"/>
    <path id="Path_1391" data-name="Path 1391" d="M97.053,34.746l.015,2.034-.82.413a1.5,1.5,0,0,1,.077-.6.446.446,0,0,0-.19-.541c-.165-.111-.32-.234-.521-.381a2.442,2.442,0,0,1,.743-.143.444.444,0,0,0,.417-.28,5.519,5.519,0,0,1,.278-.5" transform="translate(-89.922 -32.876)" fill="#f4f4f4"/>
    <path id="Path_1392" data-name="Path 1392" d="M169.253,34.746q.008,1.017.015,2.034l-.82.413a1.5,1.5,0,0,1,.077-.6.448.448,0,0,0-.19-.541c-.163-.112-.314-.239-.507-.386a2.425,2.425,0,0,1,.729-.138.443.443,0,0,0,.417-.28,5.517,5.517,0,0,1,.278-.5" transform="translate(-157.838 -32.876)" fill="#f4f4f4"/>
    <path id="Path_1393" data-name="Path 1393" d="M25.714,114.716l.015,2.034-.819.412a1.491,1.491,0,0,1,.077-.6.445.445,0,0,0-.191-.541c-.164-.111-.32-.232-.48-.349l.068-.088c.212-.031.422-.076.636-.089a.428.428,0,0,0,.417-.278,5.509,5.509,0,0,1,.278-.5" transform="translate(-22.868 -108.543)" fill="#f4f4f4"/>
    <path id="Path_1394" data-name="Path 1394" d="M97.28,114.716l.015,2.034-.82.413a1.5,1.5,0,0,1,.077-.6.448.448,0,0,0-.19-.541c-.163-.112-.315-.239-.507-.386a2.424,2.424,0,0,1,.729-.138.444.444,0,0,0,.417-.28,5.521,5.521,0,0,1,.278-.5" transform="translate(-90.15 -108.543)" fill="#f4f4f4"/>
    <path id="Path_1395" data-name="Path 1395" d="M169.253,114.716q.008,1.017.015,2.034l-.82.413a1.5,1.5,0,0,1,.077-.6.448.448,0,0,0-.19-.541c-.163-.112-.314-.239-.507-.386a2.424,2.424,0,0,1,.729-.138.444.444,0,0,0,.417-.28,5.519,5.519,0,0,1,.278-.5" transform="translate(-157.838 -108.543)" fill="#f4f4f4"/>
  </g>
</svg>
